<?xml version="1.0" encoding="utf-8"?>
<!-- Generator: Adobe Illustrator 25.1.0, SVG Export Plug-In . SVG Version: 6.00 Build 0)  -->
<svg version="1.1" xmlns="http://www.w3.org/2000/svg" xmlns:xlink="http://www.w3.org/1999/xlink" x="0px" y="0px"
	 viewBox="0 0 216.9 202.3" style="enable-background:new 0 0 216.9 202.3;" xml:space="preserve">
<style type="text/css">
	.st0{fill:#FFFFFF;}
	.st1{fill:#010202;stroke:#010202;stroke-width:0.25;stroke-miterlimit:10;}
	.st2{fill:#FFFFFF;stroke:url(#SVGID_1_);stroke-miterlimit:10;}
	.st3{fill:url(#SVGID_2_);stroke:url(#SVGID_3_);stroke-width:2;stroke-linecap:round;stroke-linejoin:round;stroke-miterlimit:10;}
	.st4{stroke:#000000;stroke-width:2;stroke-linecap:round;stroke-linejoin:round;stroke-miterlimit:10;}
	.st5{fill:#FFFFFF;stroke:#0E0C0A;stroke-width:0.5;stroke-miterlimit:10;}
	.st6{fill:none;stroke:url(#SVGID_4_);stroke-width:3;stroke-linecap:round;stroke-miterlimit:10;}
	.st7{fill:#E30613;stroke:#0E0C0A;stroke-width:0.5;stroke-miterlimit:10;}
	.st8{fill:#FFFFFF;stroke:#0E0C0A;stroke-width:0.5;stroke-linecap:round;stroke-linejoin:round;stroke-miterlimit:10;}
	.st9{fill:#696969;stroke:#696969;stroke-width:3;stroke-linecap:round;stroke-linejoin:round;stroke-miterlimit:10;}
</style>
<g id="CALANDRE_x5F_LIGNES">
</g>
<g id="LIGNES_x5F_DE">
	<rect x="-34" y="-66" class="st0" width="494" height="393"/>
	<path class="st1" d="M446.5,363"/>
	<g>
		<linearGradient id="SVGID_1_" gradientUnits="userSpaceOnUse" x1="66.8457" y1="112.0097" x2="153.0897" y2="112.0097">
			<stop  offset="0" style="stop-color:#004899"/>
			<stop  offset="0.1974" style="stop-color:#005EA8"/>
			<stop  offset="0.3369" style="stop-color:#0061AB"/>
			<stop  offset="0.4641" style="stop-color:#E30613"/>
			<stop  offset="1" style="stop-color:#E30613"/>
		</linearGradient>
		<circle class="st2" cx="110" cy="112" r="42.6"/>
		<g>
			<linearGradient id="SVGID_2_" gradientUnits="userSpaceOnUse" x1="105.1361" y1="84.8962" x2="147.8903" y2="84.8962">
				<stop  offset="2.934383e-08" style="stop-color:#E74011"/>
				<stop  offset="0.4518" style="stop-color:#E63312"/>
				<stop  offset="0.6651" style="stop-color:#E41B13"/>
				<stop  offset="1" style="stop-color:#E30613"/>
			</linearGradient>
			<linearGradient id="SVGID_3_" gradientUnits="userSpaceOnUse" x1="104.1361" y1="84.8962" x2="148.8903" y2="84.8962">
				<stop  offset="2.934383e-08" style="stop-color:#E74011"/>
				<stop  offset="0.4518" style="stop-color:#E63312"/>
				<stop  offset="0.6651" style="stop-color:#E41B13"/>
				<stop  offset="1" style="stop-color:#E30613"/>
			</linearGradient>
			<polygon class="st3" points="108.7,115.1 105.1,112.6 147.9,54.7 			"/>
			
				<ellipse transform="matrix(0.5104 -0.8599 0.8599 0.5104 -43.3365 148.1596)" class="st4" cx="108.4" cy="112.1" rx="5.7" ry="5.7"/>
		</g>
		<g>
			<g>
				<path class="st5" d="M36.9,119.3l0.1,0.8c0.1,0.4-0.2,0.8-0.6,0.8l-0.9,0.2c-0.4,0.1-0.8-0.2-0.8-0.6l-0.1-0.8
					c-0.1-0.4,0.2-0.8,0.6-0.8l0.9-0.2C36.5,118.6,36.9,118.9,36.9,119.3z"/>
				<linearGradient id="SVGID_4_" gradientUnits="userSpaceOnUse" x1="32.3809" y1="107.7286" x2="184.5094" y2="107.7286">
					<stop  offset="0" style="stop-color:#004899"/>
					<stop  offset="0.1974" style="stop-color:#005EA8"/>
					<stop  offset="0.3369" style="stop-color:#0061AB"/>
					<stop  offset="0.4641" style="stop-color:#E30613"/>
					<stop  offset="1" style="stop-color:#E30613"/>
				</linearGradient>
				<circle class="st6" cx="108.4" cy="107.7" r="74.6"/>
				<path class="st7" d="M63,51.8l-0.6,0.5c-0.3,0.3-0.7,0.2-1-0.1l-0.6-0.7c-0.3-0.3-0.2-0.7,0.1-1l0.6-0.5c0.3-0.3,0.7-0.2,1,0.1
					l0.6,0.7C63.3,51,63.3,51.5,63,51.8z"/>
				<path class="st8" d="M51.6,66l-2.1-3c-0.1-0.1-0.3-0.1-0.4,0l-2.3,3c-0.1,0.1,0,0.3,0.1,0.4l3.6,1C51.4,67.6,52.1,66.7,51.6,66z
					"/>
				<path class="st7" d="M41.5,81.2l-0.3,0.7c-0.2,0.4-0.6,0.5-0.9,0.4l-0.8-0.4c-0.4-0.2-0.5-0.6-0.4-0.9l0.3-0.7
					c0.2-0.4,0.6-0.5,0.9-0.4l0.8,0.4C41.5,80.4,41.7,80.8,41.5,81.2z"/>
				<path class="st8" d="M37.9,99.2l-3.4-1.5c-0.2-0.1-0.3,0-0.3,0.2l-0.4,3.8c0,0.2,0.1,0.3,0.3,0.3l3.6-1
					C38.6,100.7,38.7,99.6,37.9,99.2z"/>
				<path class="st7" d="M37.5,119.3l0.1,0.8c0.1,0.4-0.2,0.8-0.6,0.8l-0.9,0.2c-0.4,0.1-0.8-0.2-0.8-0.6l-0.1-0.8
					c-0.1-0.4,0.2-0.8,0.6-0.8l0.9-0.2C37.1,118.6,37.5,118.9,37.5,119.3z"/>
				<path class="st8" d="M43.6,136.7l-3.6,0.3c-0.2,0-0.3,0.2-0.2,0.3l1.5,3.5c0.1,0.2,0.3,0.2,0.4,0.1l2.7-2.7
					C44.9,137.7,44.4,136.6,43.6,136.7z"/>
				<path class="st7" d="M53,153.9l0.5,0.6c0.3,0.3,0.3,0.7,0,1l-0.6,0.6c-0.3,0.3-0.7,0.3-1,0l-0.5-0.6c-0.3-0.3-0.3-0.7,0-1
					l0.6-0.6C52.3,153.6,52.7,153.6,53,153.9z"/>
				<path class="st8" d="M66,164.4l-2.9,2.2c-0.1,0.1-0.1,0.3,0,0.4l3.1,2.2c0.1,0.1,0.3,0,0.4-0.1l0.9-3.7
					C67.6,164.5,66.7,163.8,66,164.4z"/>
				<path class="st8" d="M81.6,41.9l-0.5-3.6c0-0.2-0.2-0.3-0.4-0.2l-3.4,1.7c-0.2,0.1-0.2,0.3-0.1,0.4l2.8,2.5
					C80.8,43.3,81.8,42.8,81.6,41.9z"/>
				<path class="st7" d="M99,36l-0.8,0.1c-0.4,0-0.7-0.2-0.8-0.6l-0.1-0.9c0-0.4,0.2-0.7,0.6-0.8l0.8-0.1c0.4,0,0.7,0.2,0.8,0.6
					l0.1,0.9C99.6,35.6,99.3,36,99,36z"/>
				<path class="st8" d="M118.8,37.7l1.5-3.3c0.1-0.2,0-0.3-0.2-0.3l-3.8-0.4c-0.2,0-0.3,0.1-0.3,0.3l1,3.6
					C117.3,38.4,118.5,38.5,118.8,37.7z"/>
				<path class="st7" d="M137.7,41.5l-0.7-0.3c-0.4-0.2-0.5-0.6-0.4-0.9l0.3-0.8c0.2-0.4,0.6-0.5,0.9-0.4l0.7,0.3
					c0.4,0.2,0.5,0.6,0.4,0.9l-0.3,0.8C138.5,41.5,138,41.7,137.7,41.5z"/>
				<path class="st8" d="M153.4,53l3-2.1c0.1-0.1,0.1-0.3,0-0.4l-3-2.3c-0.1-0.1-0.3,0-0.4,0.1l-1,3.6
					C151.8,52.8,152.7,53.4,153.4,53z"/>
				<path class="st7" d="M166.3,65l-0.5-0.6c-0.2-0.3-0.2-0.8,0.1-1l0.7-0.5c0.3-0.2,0.8-0.2,1,0.1l0.5,0.6c0.2,0.3,0.2,0.8-0.1,1
					l-0.7,0.5C167,65.4,166.5,65.3,166.3,65z"/>
				<path class="st8" d="M175.3,83.7l3.6-0.4c0.2,0,0.3-0.2,0.2-0.3l-1.6-3.4c-0.1-0.2-0.3-0.2-0.4-0.1l-2.6,2.7
					C173.9,82.8,174.4,83.8,175.3,83.7z"/>
				<path class="st7" d="M180.5,101.3l-0.1-0.8c0-0.4,0.3-0.7,0.6-0.8l0.9-0.1c0.4,0,0.7,0.3,0.8,0.6l0.1,0.8c0,0.4-0.3,0.7-0.6,0.8
					l-0.9,0.1C180.8,102,180.5,101.7,180.5,101.3z"/>
				<path class="st8" d="M178.2,121.2l3.2,1.8c0.1,0.1,0.3,0,0.4-0.2l0.8-3.7c0-0.2-0.1-0.3-0.3-0.3l-3.7,0.6
					C177.7,119.7,177.5,120.8,178.2,121.2z"/>
				<path class="st7" d="M173.4,138.9l0.4-0.7c0.2-0.3,0.6-0.5,1-0.3l0.8,0.4c0.3,0.2,0.5,0.6,0.3,1l-0.4,0.7
					c-0.2,0.3-0.6,0.5-1,0.3l-0.8-0.4C173.3,139.6,173.2,139.2,173.4,138.9z"/>
				<path class="st7" d="M164.2,156l-0.6-0.6c-0.3-0.3-0.3-0.7,0-1l0.6-0.6c0.3-0.3,0.7-0.3,1,0l0.6,0.6c0.3,0.3,0.3,0.7,0,1
					l-0.6,0.6C164.9,156.3,164.5,156.3,164.2,156z"/>
				<path class="st8" d="M148.8,166l1,3.5c0,0.2,0.2,0.2,0.4,0.1l3.2-2.1c0.1-0.1,0.1-0.3,0-0.4l-3.1-2.1
					C149.5,164.5,148.6,165.1,148.8,166z"/>
			</g>
			<rect x="69" y="168.8" class="st0" width="77.8" height="22.3"/>
		</g>
		<circle class="st9" cx="108.4" cy="112.1" r="1.6"/>
		<rect x="56.1" y="135.4" class="st0" width="53" height="14"/>
		<rect x="101.3" y="135.4" class="st0" width="53" height="14"/>
	</g>
</g>
<g id="VITESSE">
</g>
</svg>
