<?xml version="1.0" encoding="utf-8"?>
<!-- Generator: Adobe Illustrator 25.1.0, SVG Export Plug-In . SVG Version: 6.00 Build 0)  -->
<svg version="1.1" xmlns="http://www.w3.org/2000/svg" xmlns:xlink="http://www.w3.org/1999/xlink" x="0px" y="0px"
	 viewBox="0 0 655.9 218.3" style="enable-background:new 0 0 655.9 218.3;" xml:space="preserve">
<style type="text/css">
	.st0{fill:#E30A18;}
	.st1{fill:#010202;stroke:#010202;stroke-width:0.25;stroke-miterlimit:10;}
	.st2{fill:#FFFFFF;stroke:url(#SVGID_1_);stroke-miterlimit:10;}
	.st3{fill:url(#SVGID_2_);stroke:url(#SVGID_3_);stroke-width:2;stroke-linecap:round;stroke-linejoin:round;stroke-miterlimit:10;}
	.st4{stroke:#000000;stroke-width:2;stroke-linecap:round;stroke-linejoin:round;stroke-miterlimit:10;}
	.st5{fill:#FFFFFF;stroke:#0E0C0A;stroke-width:0.5;stroke-miterlimit:10;}
	.st6{fill:none;stroke:url(#SVGID_4_);stroke-width:3;stroke-linecap:round;stroke-miterlimit:10;}
	.st7{fill:#E30613;stroke:#0E0C0A;stroke-width:0.5;stroke-miterlimit:10;}
	.st8{fill:#FFFFFF;stroke:#0E0C0A;stroke-width:0.5;stroke-linecap:round;stroke-linejoin:round;stroke-miterlimit:10;}
	.st9{fill:#FFFFFF;}
	.st10{fill:#696969;stroke:#696969;stroke-width:3;stroke-linecap:round;stroke-linejoin:round;stroke-miterlimit:10;}
</style>
<g id="CALANDRE_x5F_LIGNES">
	<g>
		<path class="st0" d="M219.8,136.7c-4.2-4.2-6.4-10.5-6.4-18.6V87.4c0-1.6,0.5-3,1.4-4c1-1,2.3-1.5,3.9-1.5c1.6,0,2.9,0.5,3.9,1.5
			c1,1,1.4,2.3,1.4,4v31.3c0,5.2,1.2,9.1,3.7,11.7c2.4,2.6,6,4,10.7,4c4.6,0,8.2-1.3,10.6-4c2.4-2.7,3.7-6.5,3.7-11.6V87.4
			c0-1.6,0.5-3,1.4-4c1-1,2.3-1.5,3.9-1.5c1.6,0,2.9,0.5,3.9,1.5c1,1,1.4,2.3,1.4,4v30.7c0,8.1-2.1,14.3-6.4,18.6
			c-4.2,4.3-10.5,6.4-18.6,6.4C230.3,143.1,224,140.9,219.8,136.7z"/>
		<path class="st0" d="M325.2,83.4c0.9,1,1.4,2.3,1.4,4v49.9c0,1.6-0.5,3-1.4,4c-1,1-2.2,1.5-3.7,1.5c-1.8,0-3.2-0.7-4.2-2l-31-40.4
			v36.8c0,1.6-0.5,3-1.4,4c-0.9,1-2.2,1.5-3.7,1.5c-1.6,0-2.8-0.5-3.7-1.5c-0.9-1-1.4-2.4-1.4-4V87.4c0-1.6,0.5-3,1.4-4
			c1-1,2.2-1.5,3.8-1.5c1.8,0,3.1,0.7,4.1,2l30.9,40.2V87.4c0-1.6,0.5-3,1.4-4c0.9-1,2.2-1.5,3.7-1.5
			C323,81.9,324.3,82.4,325.2,83.4z"/>
		<path class="st0" d="M341,141.3c-1-1-1.5-2.4-1.5-4V87.4c0-1.6,0.5-3,1.5-4c1-1,2.3-1.5,4-1.5c1.7,0,3,0.5,4,1.5
			c1,1,1.5,2.3,1.5,4v49.9c0,1.6-0.5,3-1.5,4c-1,1-2.3,1.5-4,1.5C343.3,142.8,342,142.3,341,141.3z"/>
		<path class="st0" d="M411.6,137.7c0,1.3-0.5,2.5-1.5,3.4c-1,1-2.2,1.5-3.5,1.5c-1.4,0-2.7-0.6-3.9-1.8l-28.3-26.5v23
			c0,1.6-0.5,3-1.5,4c-1,1-2.3,1.5-4,1.5c-1.6,0-3-0.5-4-1.5c-1-1-1.5-2.4-1.5-4V87.4c0-1.6,0.5-3,1.5-4c1-1,2.3-1.5,4-1.5
			c1.7,0,3,0.5,4,1.5c1,1,1.5,2.3,1.5,4v21.8l27.4-25.7c1-1,2.2-1.5,3.5-1.5c1.3,0,2.5,0.5,3.4,1.5c1,1,1.5,2.1,1.5,3.4
			c0,1.3-0.6,2.5-1.7,3.6l-22.9,20.9l24.3,22.6C411.1,135.1,411.6,136.3,411.6,137.7z"/>
		<path class="st0" d="M428.1,84.1c1.2,1.4,1.8,3.5,1.8,6.2c0,5.3-1.9,10-5.6,14c-0.7,0.7-1.5,1.1-2.4,1.1c-0.8,0-1.5-0.3-2.2-0.9
			c-0.7-0.6-1-1.3-1-2.1c0-0.7,0.3-1.3,0.8-2c1.7-1.8,2.8-3.9,3.3-6.1c-1.6-0.2-3-0.8-4-1.9c-1-1.1-1.6-2.5-1.6-4.1
			c0-1.8,0.6-3.3,1.7-4.5c1.2-1.2,2.6-1.8,4.4-1.8C425.4,81.9,426.9,82.6,428.1,84.1z"/>
		<path class="st0" d="M495.4,138c0,1.3-0.5,2.4-1.6,3.3c-1,0.9-2.3,1.4-3.6,1.4c-0.9,0-1.8-0.2-2.5-0.7c-0.8-0.5-1.4-1.2-1.9-2.3
			l-5.1-11.4h-29.9l-5.1,11.4c-0.5,1-1.1,1.8-1.9,2.3c-0.8,0.5-1.7,0.7-2.6,0.7c-1.3,0-2.5-0.5-3.6-1.4c-1.1-0.9-1.6-2-1.6-3.3
			c0-0.7,0.2-1.5,0.5-2.2L460,85.3c0.5-1.1,1.3-2,2.3-2.6c1-0.6,2.2-0.9,3.4-0.9c1.2,0,2.3,0.3,3.4,0.9c1,0.6,1.8,1.5,2.3,2.6
			l23.5,50.4C495.3,136.5,495.4,137.2,495.4,138z M454.5,119.8H477l-11.2-25.2L454.5,119.8z"/>
		<path class="st0" d="M505,140.9c-0.9-0.9-1.4-2.2-1.4-3.7V87.4c0-1.6,0.5-3,1.5-4c1-1,2.3-1.5,4-1.5c1.7,0,3,0.5,4,1.5
			c1,1,1.5,2.3,1.5,4v45.9h23.9c3.4,0,5.1,1.5,5.1,4.5c0,3-1.7,4.5-5.1,4.5h-29.7C507.2,142.3,505.9,141.8,505,140.9z"/>
		<path class="st0" d="M552.2,140.9c-0.9-0.9-1.4-2.2-1.4-3.7V87.4c0-1.6,0.5-3,1.5-4c1-1,2.3-1.5,4-1.5c1.7,0,3,0.5,4,1.5
			c1,1,1.5,2.3,1.5,4v45.9h23.9c3.4,0,5.1,1.5,5.1,4.5c0,3-1.7,4.5-5.1,4.5H556C554.4,142.3,553.1,141.8,552.2,140.9z"/>
	</g>
	<g>
		<path d="M245.6,180.9c-2.1,0-3.5-0.6-4.3-1.7c-0.8-1.1-1.2-2.9-1.2-5.3c0-2.4,0.4-4.2,1.2-5.4c0.8-1.2,2.2-1.8,4.3-1.8
			s3.5,0.6,4.3,1.8c0.8,1.2,1.2,3,1.2,5.4c0,1.7-0.2,3.1-0.5,4.1c-0.3,1-0.9,1.8-1.8,2.3l1.7,2.7l-1.4,0.7l-1.8-2.9
			C246.8,180.8,246.3,180.9,245.6,180.9z M241.7,173.8c0,2,0.3,3.5,0.8,4.4c0.5,0.9,1.6,1.3,3.1,1.3s2.6-0.4,3.1-1.3
			c0.5-0.9,0.8-2.3,0.8-4.4s-0.3-3.5-0.8-4.5c-0.5-0.9-1.6-1.4-3.1-1.4s-2.5,0.5-3.1,1.4C242,170.3,241.7,171.8,241.7,173.8z"/>
		<path d="M259.9,170.7h1.5v10h-1.5V180c-1,0.6-2,0.9-3,0.9c-1.4,0-2.3-0.4-2.7-1.1c-0.4-0.7-0.7-2-0.7-3.9v-5.2h1.5v5.2
			c0,1.5,0.1,2.4,0.4,2.9c0.3,0.5,0.8,0.7,1.7,0.7c0.4,0,0.9-0.1,1.3-0.2s0.8-0.2,1-0.4l0.4-0.2V170.7z"/>
		<path d="M271.3,173.7v5.1c0,0.5,0.4,0.8,1.2,0.9l-0.1,1.2c-1.1,0-1.8-0.3-2.4-0.8c-1.2,0.5-2.4,0.8-3.6,0.8
			c-0.9,0-1.6-0.3-2.1-0.8c-0.5-0.5-0.7-1.3-0.7-2.2c0-1,0.2-1.7,0.7-2.1c0.5-0.5,1.3-0.7,2.3-0.9l3.1-0.3v-0.9
			c0-0.7-0.1-1.2-0.4-1.5c-0.3-0.3-0.7-0.4-1.2-0.4c-1.1,0-2.2,0.1-3.3,0.2l-0.6,0.1l-0.1-1.1c1.5-0.3,2.8-0.4,3.9-0.4
			s2,0.3,2.5,0.8C271.1,171.8,271.3,172.6,271.3,173.7z M265.2,177.8c0,1.2,0.5,1.8,1.5,1.8c0.9,0,1.8-0.2,2.7-0.5l0.5-0.2v-3.3
			l-3,0.3c-0.6,0.1-1,0.2-1.3,0.5C265.3,176.8,265.2,177.2,265.2,177.8z"/>
		<path d="M275.8,180.7h-1.5v-10h1.5v0.7c1.1-0.6,2.1-0.9,3.1-0.9c1.3,0,2.2,0.4,2.7,1.1s0.7,2,0.7,3.8v5.3h-1.5v-5.2
			c0-1.4-0.1-2.3-0.4-2.8s-0.9-0.8-1.8-0.8c-0.4,0-0.9,0.1-1.3,0.2c-0.5,0.1-0.8,0.2-1.1,0.4l-0.4,0.2V180.7z"/>
		<path d="M292.7,166.3v14.4h-1.5V180c-1,0.6-2,0.9-3,0.9c-0.5,0-1-0.1-1.4-0.2c-0.4-0.1-0.8-0.4-1.1-0.7c-0.7-0.7-1.1-2-1.1-4
			s0.3-3.3,1-4.2c0.6-0.9,1.7-1.3,3.2-1.3c0.8,0,1.6,0.1,2.5,0.3v-4.4H292.7z M287.5,179.4c0.2,0.1,0.6,0.1,0.9,0.1s0.8-0.1,1.3-0.2
			s0.8-0.2,1.1-0.4l0.4-0.2V172c-0.9-0.2-1.6-0.2-2.4-0.2c-1,0-1.7,0.3-2.1,1s-0.6,1.6-0.6,3c0,1.5,0.2,2.6,0.7,3.1
			C287,179.2,287.3,179.3,287.5,179.4z"/>
		<path d="M300,168.4v-1.7h1.5v1.7H300z M300,180.7v-10h1.5v10H300z"/>
		<path d="M305.9,180.7h-1.5v-10h1.5v0.7c1.1-0.6,2.1-0.9,3.1-0.9c1.3,0,2.2,0.4,2.7,1.1s0.7,2,0.7,3.8v5.3h-1.5v-5.2
			c0-1.4-0.1-2.3-0.4-2.8s-0.9-0.8-1.8-0.8c-0.4,0-0.9,0.1-1.3,0.2c-0.5,0.1-0.8,0.2-1.1,0.4l-0.4,0.2V180.7z"/>
		<path d="M316.6,180.7h-1.5v-10h1.5v0.7c1.1-0.6,2.1-0.9,3.1-0.9c1.3,0,2.2,0.4,2.7,1.1s0.7,2,0.7,3.8v5.3h-1.5v-5.2
			c0-1.4-0.1-2.3-0.4-2.8s-0.9-0.8-1.8-0.8c-0.4,0-0.9,0.1-1.3,0.2c-0.5,0.1-0.8,0.2-1.1,0.4l-0.4,0.2V180.7z"/>
		<path d="M325.4,175.7c0-1.8,0.3-3.1,1-4c0.7-0.8,1.8-1.2,3.3-1.2c1.6,0,2.7,0.4,3.3,1.2c0.6,0.8,1,2.1,1,4c0,1.8-0.3,3.2-0.9,4
			c-0.6,0.8-1.7,1.2-3.4,1.2c-1.6,0-2.7-0.4-3.4-1.2C325.7,178.8,325.4,177.5,325.4,175.7z M327,175.7c0,1.5,0.2,2.5,0.5,3.1
			c0.4,0.6,1.1,0.9,2.2,0.9c1.1,0,1.9-0.3,2.2-0.9s0.5-1.6,0.5-3.1s-0.2-2.5-0.6-3c-0.4-0.6-1.1-0.8-2.1-0.8c-1,0-1.8,0.3-2.2,0.8
			C327.2,173.2,327,174.2,327,175.7z"/>
		<path d="M335.3,170.7h1.6l2.3,8.7h0.7l2.4-8.7h1.5l-2.8,10h-3L335.3,170.7z"/>
		<path d="M352.8,173.7v5.1c0,0.5,0.4,0.8,1.2,0.9l-0.1,1.2c-1.1,0-1.8-0.3-2.4-0.8c-1.2,0.5-2.4,0.8-3.6,0.8
			c-0.9,0-1.6-0.3-2.1-0.8c-0.5-0.5-0.7-1.3-0.7-2.2c0-1,0.2-1.7,0.7-2.1c0.5-0.5,1.3-0.7,2.3-0.9l3.1-0.3v-0.9
			c0-0.7-0.1-1.2-0.4-1.5c-0.3-0.3-0.7-0.4-1.2-0.4c-1.1,0-2.2,0.1-3.3,0.2l-0.6,0.1l-0.1-1.1c1.5-0.3,2.8-0.4,3.9-0.4
			s2,0.3,2.5,0.8C352.5,171.8,352.8,172.6,352.8,173.7z M346.6,177.8c0,1.2,0.5,1.8,1.5,1.8c0.9,0,1.8-0.2,2.7-0.5l0.5-0.2v-3.3
			l-3,0.3c-0.6,0.1-1,0.2-1.3,0.5C346.7,176.8,346.6,177.2,346.6,177.8z"/>
		<path d="M360.9,172h-3.2v4.8c0,1.1,0.1,1.9,0.2,2.3c0.2,0.4,0.6,0.5,1.2,0.5l1.8-0.1l0.1,1.2c-0.9,0.1-1.6,0.2-2,0.2
			c-1,0-1.8-0.3-2.2-0.8c-0.4-0.5-0.6-1.5-0.6-2.9V172h-1.4v-1.3h1.4v-3.1h1.5v3.1h3.2V172z"/>
		<path d="M362.7,168.4v-1.7h1.5v1.7H362.7z M362.7,180.7v-10h1.5v10H362.7z"/>
		<path d="M366.7,175.7c0-1.8,0.3-3.1,1-4c0.7-0.8,1.8-1.2,3.3-1.2c1.6,0,2.7,0.4,3.3,1.2c0.6,0.8,1,2.1,1,4c0,1.8-0.3,3.2-0.9,4
			c-0.6,0.8-1.7,1.2-3.4,1.2c-1.6,0-2.7-0.4-3.4-1.2C367,178.8,366.7,177.5,366.7,175.7z M368.2,175.7c0,1.5,0.2,2.5,0.5,3.1
			c0.4,0.6,1.1,0.9,2.2,0.9s1.9-0.3,2.2-0.9s0.5-1.6,0.5-3.1s-0.2-2.5-0.6-3c-0.4-0.6-1.1-0.8-2.2-0.8s-1.8,0.3-2.2,0.8
			C368.4,173.2,368.2,174.2,368.2,175.7z"/>
		<path d="M379.2,180.7h-1.5v-10h1.5v0.7c1.1-0.6,2.1-0.9,3.1-0.9c1.3,0,2.2,0.4,2.7,1.1s0.7,2,0.7,3.8v5.3h-1.5v-5.2
			c0-1.4-0.1-2.3-0.4-2.8s-0.9-0.8-1.8-0.8c-0.4,0-0.9,0.1-1.3,0.2c-0.5,0.1-0.8,0.2-1.1,0.4l-0.4,0.2V180.7z"/>
		<path d="M399.6,179.5l0.6-0.1l0,1.2c-1.5,0.2-2.8,0.3-3.9,0.3c-1.4,0-2.5-0.4-3.1-1.2c-0.6-0.8-0.9-2.1-0.9-3.9
			c0-3.5,1.4-5.3,4.2-5.3c1.3,0,2.4,0.4,3,1.1c0.7,0.8,1,1.9,1,3.6l-0.1,1.1h-6.6c0,1.1,0.2,1.9,0.6,2.5c0.4,0.5,1.1,0.8,2.1,0.8
			S398.6,179.5,399.6,179.5z M399.1,175.1c0-1.2-0.2-2.1-0.6-2.6c-0.4-0.5-1-0.8-1.9-0.8c-0.9,0-1.6,0.3-2,0.8
			c-0.4,0.5-0.7,1.4-0.7,2.6H399.1z"/>
		<path d="M408,172h-3.2v4.8c0,1.1,0.1,1.9,0.2,2.3c0.2,0.4,0.6,0.5,1.2,0.5l1.8-0.1l0.1,1.2c-0.9,0.1-1.6,0.2-2,0.2
			c-1,0-1.8-0.3-2.2-0.8c-0.4-0.5-0.6-1.5-0.6-2.9V172H402v-1.3h1.4v-3.1h1.5v3.1h3.2V172z"/>
		<path d="M417.4,171.8c-1.5,0-2.2,0.5-2.2,1.5c0,0.5,0.2,0.8,0.5,1c0.3,0.2,1.1,0.4,2.3,0.6s2,0.5,2.5,0.9s0.7,1.1,0.7,2.1
			c0,1-0.3,1.8-1,2.3c-0.7,0.5-1.6,0.7-2.9,0.7c-0.8,0-1.8-0.1-2.9-0.3l-0.6-0.1l0.1-1.3c1.5,0.2,2.7,0.3,3.4,0.3s1.4-0.1,1.8-0.4
			c0.4-0.2,0.6-0.7,0.6-1.2s-0.2-1-0.5-1.2s-1.1-0.4-2.3-0.6c-1.2-0.2-2-0.5-2.5-0.8c-0.5-0.4-0.7-1-0.7-2s0.3-1.7,1-2.2
			s1.5-0.7,2.6-0.7c0.8,0,1.8,0.1,3.1,0.3l0.6,0.1l0,1.3C419.4,171.9,418.3,171.8,417.4,171.8z"/>
		<path d="M430.4,179.5l0.6-0.1l0,1.2c-1.5,0.2-2.8,0.3-3.9,0.3c-1.4,0-2.5-0.4-3.1-1.2c-0.6-0.8-0.9-2.1-0.9-3.9
			c0-3.5,1.4-5.3,4.2-5.3c1.3,0,2.4,0.4,3,1.1c0.7,0.8,1,1.9,1,3.6l-0.1,1.1h-6.6c0,1.1,0.2,1.9,0.6,2.5c0.4,0.5,1.1,0.8,2.1,0.8
			S429.3,179.5,430.4,179.5z M429.8,175.1c0-1.2-0.2-2.1-0.6-2.6c-0.4-0.5-1-0.8-1.9-0.8c-0.9,0-1.6,0.3-2,0.8
			c-0.4,0.5-0.7,1.4-0.7,2.6H429.8z"/>
		<path d="M435.2,180.7h-1.5v-10h1.5v0.7c1.1-0.6,2.1-0.9,3.1-0.9c1.3,0,2.2,0.4,2.7,1.1s0.7,2,0.7,3.8v5.3h-1.5v-5.2
			c0-1.4-0.1-2.3-0.4-2.8s-0.9-0.8-1.8-0.8c-0.4,0-0.9,0.1-1.3,0.2c-0.5,0.1-0.8,0.2-1.1,0.4l-0.4,0.2V180.7z"/>
		<path d="M447.6,171.8c-1.5,0-2.2,0.5-2.2,1.5c0,0.5,0.2,0.8,0.5,1c0.3,0.2,1.1,0.4,2.3,0.6s2,0.5,2.5,0.9s0.7,1.1,0.7,2.1
			c0,1-0.3,1.8-1,2.3c-0.7,0.5-1.6,0.7-2.9,0.7c-0.8,0-1.8-0.1-2.9-0.3l-0.6-0.1l0.1-1.3c1.5,0.2,2.7,0.3,3.4,0.3s1.4-0.1,1.8-0.4
			c0.4-0.2,0.6-0.7,0.6-1.2s-0.2-1-0.5-1.2s-1.1-0.4-2.3-0.6c-1.2-0.2-2-0.5-2.5-0.8c-0.5-0.4-0.7-1-0.7-2s0.3-1.7,1-2.2
			s1.5-0.7,2.6-0.7c0.8,0,1.8,0.1,3.1,0.3l0.6,0.1l0,1.3C449.6,171.9,448.4,171.8,447.6,171.8z"/>
		<path d="M460.8,173.7v5.1c0,0.5,0.4,0.8,1.2,0.9l-0.1,1.2c-1.1,0-1.8-0.3-2.4-0.8c-1.2,0.5-2.4,0.8-3.6,0.8
			c-0.9,0-1.6-0.3-2.1-0.8c-0.5-0.5-0.7-1.3-0.7-2.2c0-1,0.2-1.7,0.7-2.1s1.3-0.7,2.3-0.9l3.1-0.3v-0.9c0-0.7-0.1-1.2-0.4-1.5
			c-0.3-0.3-0.7-0.4-1.2-0.4c-1.1,0-2.2,0.1-3.3,0.2l-0.6,0.1l-0.1-1.1c1.5-0.3,2.8-0.4,3.9-0.4c1.1,0,2,0.3,2.5,0.8
			C460.5,171.8,460.8,172.6,460.8,173.7z M454.6,177.8c0,1.2,0.5,1.8,1.5,1.8c0.9,0,1.8-0.2,2.7-0.5l0.5-0.2v-3.3l-3,0.3
			c-0.6,0.1-1,0.2-1.3,0.5C454.7,176.8,454.6,177.2,454.6,177.8z"/>
		<path d="M468.9,172h-3.2v4.8c0,1.1,0.1,1.9,0.2,2.3c0.2,0.4,0.6,0.5,1.2,0.5l1.8-0.1l0.1,1.2c-0.9,0.1-1.6,0.2-2,0.2
			c-1,0-1.8-0.3-2.2-0.8c-0.4-0.5-0.6-1.5-0.6-2.9V172h-1.4v-1.3h1.4v-3.1h1.5v3.1h3.2V172z"/>
		<path d="M470.8,168.4v-1.7h1.5v1.7H470.8z M470.8,180.7v-10h1.5v10H470.8z"/>
		<path d="M474.7,175.7c0-1.8,0.3-3.1,1-4c0.7-0.8,1.8-1.2,3.3-1.2c1.6,0,2.7,0.4,3.3,1.2c0.6,0.8,1,2.1,1,4c0,1.8-0.3,3.2-0.9,4
			c-0.6,0.8-1.7,1.2-3.4,1.2c-1.6,0-2.7-0.4-3.4-1.2C475,178.8,474.7,177.5,474.7,175.7z M476.2,175.7c0,1.5,0.2,2.5,0.5,3.1
			c0.4,0.6,1.1,0.9,2.2,0.9s1.9-0.3,2.2-0.9s0.5-1.6,0.5-3.1s-0.2-2.5-0.6-3c-0.4-0.6-1.1-0.8-2.2-0.8s-1.8,0.3-2.2,0.8
			C476.4,173.2,476.2,174.2,476.2,175.7z"/>
		<path d="M487.2,180.7h-1.5v-10h1.5v0.7c1.1-0.6,2.1-0.9,3.1-0.9c1.3,0,2.2,0.4,2.7,1.1s0.7,2,0.7,3.8v5.3h-1.5v-5.2
			c0-1.4-0.1-2.3-0.4-2.8s-0.9-0.8-1.8-0.8c-0.4,0-0.9,0.1-1.3,0.2c-0.5,0.1-0.8,0.2-1.1,0.4l-0.4,0.2V180.7z"/>
		<path d="M504,171.8c-1.5,0-2.2,0.5-2.2,1.5c0,0.5,0.2,0.8,0.5,1c0.3,0.2,1.1,0.4,2.3,0.6s2,0.5,2.5,0.9s0.7,1.1,0.7,2.1
			c0,1-0.3,1.8-1,2.3c-0.7,0.5-1.6,0.7-2.9,0.7c-0.8,0-1.8-0.1-2.9-0.3l-0.6-0.1l0.1-1.3c1.5,0.2,2.7,0.3,3.4,0.3s1.4-0.1,1.8-0.4
			c0.4-0.2,0.6-0.7,0.6-1.2s-0.2-1-0.5-1.2s-1.1-0.4-2.3-0.6c-1.2-0.2-2-0.5-2.5-0.8c-0.5-0.4-0.7-1-0.7-2s0.3-1.7,1-2.2
			s1.5-0.7,2.6-0.7c0.8,0,1.8,0.1,3.1,0.3l0.6,0.1l0,1.3C506,171.9,504.8,171.8,504,171.8z"/>
		<path d="M516.9,179.5l0.6-0.1l0,1.2c-1.5,0.2-2.8,0.3-3.9,0.3c-1.4,0-2.5-0.4-3.1-1.2c-0.6-0.8-0.9-2.1-0.9-3.9
			c0-3.5,1.4-5.3,4.2-5.3c1.3,0,2.4,0.4,3,1.1c0.7,0.8,1,1.9,1,3.6l-0.1,1.1h-6.6c0,1.1,0.2,1.9,0.6,2.5c0.4,0.5,1.1,0.8,2.1,0.8
			S515.9,179.5,516.9,179.5z M516.4,175.1c0-1.2-0.2-2.1-0.6-2.6c-0.4-0.5-1-0.8-1.9-0.8c-0.9,0-1.6,0.3-2,0.8
			c-0.4,0.5-0.7,1.4-0.7,2.6H516.4z"/>
		<path d="M524.6,180.7v-10h1.5v1.4c1.2-0.8,2.4-1.3,3.7-1.6v1.5c-0.6,0.1-1.1,0.3-1.8,0.5c-0.6,0.2-1.1,0.4-1.4,0.6l-0.5,0.3v7.3
			H524.6z"/>
		<path d="M538.1,179.5l0.6-0.1l0,1.2c-1.5,0.2-2.8,0.3-3.9,0.3c-1.4,0-2.5-0.4-3.1-1.2c-0.6-0.8-0.9-2.1-0.9-3.9
			c0-3.5,1.4-5.3,4.2-5.3c1.3,0,2.4,0.4,3,1.1c0.7,0.8,1,1.9,1,3.6l-0.1,1.1h-6.6c0,1.1,0.2,1.9,0.6,2.5c0.4,0.5,1.1,0.8,2.1,0.8
			S537.1,179.5,538.1,179.5z M537.6,175.1c0-1.2-0.2-2.1-0.6-2.6c-0.4-0.5-1-0.8-1.9-0.8c-0.9,0-1.6,0.3-2,0.8
			c-0.4,0.5-0.7,1.4-0.7,2.6H537.6z"/>
		<path d="M542.9,180.7h-1.5v-10h1.5v0.7c1.1-0.6,2.1-0.9,3.1-0.9c1.3,0,2.2,0.4,2.7,1.1s0.7,2,0.7,3.8v5.3h-1.5v-5.2
			c0-1.4-0.1-2.3-0.4-2.8s-0.9-0.8-1.8-0.8c-0.4,0-0.9,0.1-1.3,0.2c-0.5,0.1-0.8,0.2-1.1,0.4l-0.4,0.2V180.7z"/>
		<path d="M555.9,170.5c0.4,0,1.2,0.1,2.2,0.2l0.5,0.1l-0.1,1.2c-1.1-0.1-1.9-0.2-2.4-0.2c-1.1,0-1.9,0.3-2.3,0.8
			c-0.4,0.5-0.6,1.5-0.6,3s0.2,2.5,0.6,3s1.2,0.9,2.4,0.9l2.4-0.2l0.1,1.2c-1.2,0.2-2.2,0.3-2.8,0.3c-1.6,0-2.6-0.4-3.2-1.2
			c-0.6-0.8-0.9-2.2-0.9-4c0-1.9,0.3-3.2,1-4C553.4,170.9,554.4,170.5,555.9,170.5z"/>
		<path d="M560.3,175.7c0-1.8,0.3-3.1,1-4c0.7-0.8,1.8-1.2,3.3-1.2c1.6,0,2.7,0.4,3.3,1.2c0.6,0.8,1,2.1,1,4c0,1.8-0.3,3.2-0.9,4
			c-0.6,0.8-1.7,1.2-3.4,1.2c-1.6,0-2.7-0.4-3.4-1.2C560.7,178.8,560.3,177.5,560.3,175.7z M561.9,175.7c0,1.5,0.2,2.5,0.5,3.1
			c0.4,0.6,1.1,0.9,2.2,0.9s1.9-0.3,2.2-0.9s0.5-1.6,0.5-3.1s-0.2-2.5-0.6-3c-0.4-0.6-1.1-0.8-2.2-0.8s-1.8,0.3-2.2,0.8
			C562.1,173.2,561.9,174.2,561.9,175.7z"/>
		<path d="M572.8,180.7h-1.5v-10h1.5v0.7c1.1-0.6,2.1-0.9,3.1-0.9c1.3,0,2.2,0.4,2.7,1.1s0.7,2,0.7,3.8v5.3h-1.5v-5.2
			c0-1.4-0.1-2.3-0.4-2.8s-0.9-0.8-1.8-0.8c-0.4,0-0.9,0.1-1.3,0.2c-0.5,0.1-0.8,0.2-1.1,0.4l-0.4,0.2V180.7z"/>
		<path d="M587.2,172H584v4.8c0,1.1,0.1,1.9,0.2,2.3c0.2,0.4,0.6,0.5,1.2,0.5l1.8-0.1l0.1,1.2c-0.9,0.1-1.6,0.2-2,0.2
			c-1,0-1.8-0.3-2.2-0.8c-0.4-0.5-0.6-1.5-0.6-2.9V172h-1.4v-1.3h1.4v-3.1h1.5v3.1h3.2V172z"/>
		<path d="M589,180.7v-10h1.5v1.4c1.2-0.8,2.4-1.3,3.7-1.6v1.5c-0.6,0.1-1.1,0.3-1.8,0.5c-0.6,0.2-1.1,0.4-1.4,0.6l-0.5,0.3v7.3H589
			z"/>
		<path d="M602.6,179.5l0.6-0.1l0,1.2c-1.5,0.2-2.8,0.3-3.9,0.3c-1.4,0-2.5-0.4-3.1-1.2c-0.6-0.8-0.9-2.1-0.9-3.9
			c0-3.5,1.4-5.3,4.2-5.3c1.3,0,2.4,0.4,3,1.1c0.7,0.8,1,1.9,1,3.6l-0.1,1.1h-6.6c0,1.1,0.2,1.9,0.6,2.5c0.4,0.5,1.1,0.8,2.1,0.8
			S601.5,179.5,602.6,179.5z M602,175.1c0-1.2-0.2-2.1-0.6-2.6c-0.4-0.5-1-0.8-1.9-0.8c-0.9,0-1.6,0.3-2,0.8
			c-0.4,0.5-0.7,1.4-0.7,2.6H602z"/>
		<path d="M607.4,180.7h-1.5v-10h1.5v0.7c1.1-0.6,2.1-0.9,3.1-0.9c1.3,0,2.2,0.4,2.7,1.1s0.7,2,0.7,3.8v5.3h-1.5v-5.2
			c0-1.4-0.1-2.3-0.4-2.8s-0.9-0.8-1.8-0.8c-0.4,0-0.9,0.1-1.3,0.2c-0.5,0.1-0.8,0.2-1.1,0.4l-0.4,0.2V180.7z"/>
		<path d="M621.7,172h-3.2v4.8c0,1.1,0.1,1.9,0.2,2.3c0.2,0.4,0.6,0.5,1.2,0.5l1.8-0.1l0.1,1.2c-0.9,0.1-1.6,0.2-2,0.2
			c-1,0-1.8-0.3-2.2-0.8c-0.4-0.5-0.6-1.5-0.6-2.9V172h-1.4v-1.3h1.4v-3.1h1.5v3.1h3.2V172z"/>
	</g>
	<rect x="298.7" y="245.4" style="fill:none;" width="4.1" height="1"/>
</g>
<g id="LIGNES_x5F_DE">
	<path class="st1" d="M441.5,379"/>
	<g>
		<linearGradient id="SVGID_1_" gradientUnits="userSpaceOnUse" x1="66.438" y1="117.6164" x2="152.6819" y2="117.6164">
			<stop  offset="0" style="stop-color:#004899"/>
			<stop  offset="0.1974" style="stop-color:#005EA8"/>
			<stop  offset="0.3369" style="stop-color:#0061AB"/>
			<stop  offset="0.4641" style="stop-color:#E30613"/>
			<stop  offset="1" style="stop-color:#E30613"/>
		</linearGradient>
		<circle class="st2" cx="109.6" cy="117.6" r="42.6"/>
		<g>
			<linearGradient id="SVGID_2_" gradientUnits="userSpaceOnUse" x1="104.7284" y1="90.5029" x2="147.4826" y2="90.5029">
				<stop  offset="2.934383e-08" style="stop-color:#E74011"/>
				<stop  offset="0.4518" style="stop-color:#E63312"/>
				<stop  offset="0.6651" style="stop-color:#E41B13"/>
				<stop  offset="1" style="stop-color:#E30613"/>
			</linearGradient>
			<linearGradient id="SVGID_3_" gradientUnits="userSpaceOnUse" x1="103.7284" y1="90.5029" x2="148.4826" y2="90.5029">
				<stop  offset="2.934383e-08" style="stop-color:#E74011"/>
				<stop  offset="0.4518" style="stop-color:#E63312"/>
				<stop  offset="0.6651" style="stop-color:#E41B13"/>
				<stop  offset="1" style="stop-color:#E30613"/>
			</linearGradient>
			<polygon class="st3" points="108.3,120.7 104.7,118.2 147.5,60.3 			"/>
			
				<ellipse transform="matrix(0.5104 -0.8599 0.8599 0.5104 -48.3576 150.5541)" class="st4" cx="108" cy="117.7" rx="5.7" ry="5.7"/>
		</g>
		<g>
			<g>
				<path class="st5" d="M36.5,124.9l0.1,0.8c0.1,0.4-0.2,0.8-0.6,0.8l-0.9,0.2c-0.4,0.1-0.8-0.2-0.8-0.6l-0.1-0.8
					c-0.1-0.4,0.2-0.8,0.6-0.8l0.9-0.2C36.1,124.3,36.5,124.5,36.5,124.9z"/>
				<linearGradient id="SVGID_4_" gradientUnits="userSpaceOnUse" x1="31.9731" y1="113.3353" x2="184.1017" y2="113.3353">
					<stop  offset="0" style="stop-color:#004899"/>
					<stop  offset="0.1974" style="stop-color:#005EA8"/>
					<stop  offset="0.3369" style="stop-color:#0061AB"/>
					<stop  offset="0.4641" style="stop-color:#E30613"/>
					<stop  offset="1" style="stop-color:#E30613"/>
				</linearGradient>
				<circle class="st6" cx="108" cy="113.3" r="74.6"/>
				<path class="st7" d="M62.6,57.4L62,57.9c-0.3,0.3-0.7,0.2-1-0.1l-0.6-0.7c-0.3-0.3-0.2-0.7,0.1-1l0.6-0.5c0.3-0.3,0.7-0.2,1,0.1
					l0.6,0.7C62.9,56.7,62.9,57.1,62.6,57.4z"/>
				<path class="st8" d="M51.2,71.6l-2.1-3c-0.1-0.1-0.3-0.1-0.4,0l-2.3,3c-0.1,0.1,0,0.3,0.1,0.4l3.6,1
					C51,73.2,51.7,72.3,51.2,71.6z"/>
				<path class="st7" d="M41.1,86.8l-0.3,0.7c-0.2,0.4-0.6,0.5-0.9,0.4L39,87.5c-0.4-0.2-0.5-0.6-0.4-0.9l0.3-0.7
					c0.2-0.4,0.6-0.5,0.9-0.4l0.8,0.4C41.1,86,41.3,86.4,41.1,86.8z"/>
				<path class="st8" d="M37.5,104.8l-3.4-1.5c-0.2-0.1-0.3,0-0.3,0.2l-0.4,3.8c0,0.2,0.1,0.3,0.3,0.3l3.6-1
					C38.2,106.3,38.3,105.2,37.5,104.8z"/>
				<path class="st7" d="M37.1,124.9l0.1,0.8c0.1,0.4-0.2,0.8-0.6,0.8l-0.9,0.2c-0.4,0.1-0.8-0.2-0.8-0.6l-0.1-0.8
					c-0.1-0.4,0.2-0.8,0.6-0.8l0.9-0.2C36.7,124.3,37,124.5,37.1,124.9z"/>
				<path class="st8" d="M43.2,142.3l-3.6,0.3c-0.2,0-0.3,0.2-0.2,0.3l1.5,3.5c0.1,0.2,0.3,0.2,0.4,0.1l2.7-2.7
					C44.5,143.3,44,142.3,43.2,142.3z"/>
				<path class="st7" d="M52.6,159.5l0.5,0.6c0.3,0.3,0.3,0.7,0,1l-0.6,0.6c-0.3,0.3-0.7,0.3-1,0l-0.5-0.6c-0.3-0.3-0.3-0.7,0-1
					l0.6-0.6C51.9,159.2,52.3,159.2,52.6,159.5z"/>
				<path class="st8" d="M65.6,170l-2.9,2.2c-0.1,0.1-0.1,0.3,0,0.4l3.1,2.2c0.1,0.1,0.3,0,0.4-0.1l0.9-3.7
					C67.2,170.1,66.3,169.4,65.6,170z"/>
				<path class="st8" d="M81.2,47.5l-0.5-3.6c0-0.2-0.2-0.3-0.4-0.2l-3.4,1.7c-0.2,0.1-0.2,0.3-0.1,0.4l2.8,2.5
					C80.4,48.9,81.3,48.4,81.2,47.5z"/>
				<path class="st7" d="M98.5,41.6l-0.8,0.1c-0.4,0-0.7-0.2-0.8-0.6l-0.1-0.9c0-0.4,0.2-0.7,0.6-0.8l0.8-0.1c0.4,0,0.7,0.2,0.8,0.6
					l0.1,0.9C99.2,41.2,98.9,41.6,98.5,41.6z"/>
				<path class="st8" d="M118.4,43.3L120,40c0.1-0.2,0-0.3-0.2-0.3l-3.8-0.4c-0.2,0-0.3,0.1-0.3,0.3l1,3.6
					C116.9,44,118.1,44.1,118.4,43.3z"/>
				<path class="st7" d="M137.3,47.1l-0.7-0.3c-0.4-0.2-0.5-0.6-0.4-0.9l0.3-0.8c0.2-0.4,0.6-0.5,0.9-0.4l0.7,0.3
					c0.4,0.2,0.5,0.6,0.4,0.9l-0.3,0.8C138,47.1,137.6,47.3,137.3,47.1z"/>
				<path class="st8" d="M153,58.6l3-2.1c0.1-0.1,0.1-0.3,0-0.4l-3-2.3c-0.1-0.1-0.3,0-0.4,0.1l-1,3.6C151.3,58.4,152.3,59,153,58.6
					z"/>
				<path class="st7" d="M165.9,70.6l-0.5-0.6c-0.2-0.3-0.2-0.8,0.1-1l0.7-0.5c0.3-0.2,0.8-0.2,1,0.1l0.5,0.6c0.2,0.3,0.2,0.8-0.1,1
					l-0.7,0.5C166.6,71,166.1,70.9,165.9,70.6z"/>
				<path class="st8" d="M174.8,89.3l3.6-0.4c0.2,0,0.3-0.2,0.2-0.3l-1.6-3.4c-0.1-0.2-0.3-0.2-0.4-0.1l-2.6,2.7
					C173.5,88.4,174,89.4,174.8,89.3z"/>
				<path class="st7" d="M180,107l-0.1-0.8c0-0.4,0.3-0.7,0.6-0.8l0.9-0.1c0.4,0,0.7,0.3,0.8,0.6l0.1,0.8c0,0.4-0.3,0.7-0.6,0.8
					l-0.9,0.1C180.4,107.6,180.1,107.3,180,107z"/>
				<path class="st8" d="M177.8,126.8l3.2,1.8c0.1,0.1,0.3,0,0.4-0.2l0.8-3.7c0-0.2-0.1-0.3-0.3-0.3l-3.7,0.6
					C177.3,125.3,177.1,126.4,177.8,126.8z"/>
				<path class="st7" d="M173,144.5l0.4-0.7c0.2-0.3,0.6-0.5,1-0.3l0.8,0.4c0.3,0.2,0.5,0.6,0.3,1l-0.4,0.7c-0.2,0.3-0.6,0.5-1,0.3
					l-0.8-0.4C172.9,145.2,172.8,144.8,173,144.5z"/>
				<path class="st7" d="M163.8,161.6l-0.6-0.6c-0.3-0.3-0.3-0.7,0-1l0.6-0.6c0.3-0.3,0.7-0.3,1,0l0.6,0.6c0.3,0.3,0.3,0.7,0,1
					l-0.6,0.6C164.5,161.9,164.1,161.9,163.8,161.6z"/>
				<path class="st8" d="M148.4,171.6l1,3.5c0,0.2,0.2,0.2,0.4,0.1l3.2-2.1c0.1-0.1,0.1-0.3,0-0.4l-3.1-2.1
					C149.1,170.1,148.2,170.8,148.4,171.6z"/>
			</g>
			<rect x="68.6" y="174.4" class="st9" width="77.8" height="22.3"/>
		</g>
		<circle class="st10" cx="108" cy="117.7" r="1.6"/>
		<rect x="55.7" y="141" class="st9" width="53" height="14"/>
		<rect x="100.9" y="141" class="st9" width="53" height="14"/>
	</g>
</g>
<g id="VITESSE">
</g>
</svg>
