<svg xmlns="http://www.w3.org/2000/svg" viewBox="0 0 629.89 292.28"><defs><style>.cls-1,.cls-3{fill:#e45d0f;}.cls-2,.cls-3{font-size:91.02px;font-family:Nunito-Bold, Nunito;font-weight:700;}.cls-2,.cls-5{fill:#4d266e;}.cls-4{letter-spacing:0em;}.cls-5{font-size:36.41px;font-family:Nunito-Regular, Nunito;}.cls-6{letter-spacing:0em;}.cls-7{letter-spacing:-0.02em;}.cls-8{fill:none;stroke:#4d266e;stroke-miterlimit:10;stroke-width:1.82px;}</style></defs><g id="EXTREMITE"><path class="cls-1" d="M236.66,119.25,145.12,38.16a22.94,22.94,0,0,0-32.37,2L31.67,131.67a22.92,22.92,0,0,0-3.08,25.93l40.2-44.8a7.55,7.55,0,0,1,9.58-.12l17.95,12.08s7.83,4.33,2.18,10.72l-43,47.93,7,6.24,66.54-74.15a7.56,7.56,0,0,1,9.58-.12l18,12.08s7.83,4.33,2.18,10.73L90.45,214.36l8.71,7.71.13-.15,89.42-99.65a7.55,7.55,0,0,1,9.58-.13l18,12.08s7.83,4.34,2.18,10.73L127.14,246.67a22.93,22.93,0,0,0,30.4-3.51l81.08-91.55A22.92,22.92,0,0,0,236.66,119.25Z"/><text class="cls-2" transform="translate(275.6 166.76)">H</text><text class="cls-3" transform="translate(350.68 166.76)">uni<tspan class="cls-4" x="129.06" y="0">’</tspan><tspan x="151.36" y="0">C</tspan></text><text class="cls-5" transform="translate(281.51 214.24)">P<tspan class="cls-6" x="23.48" y="0">R</tspan><tspan class="cls-7" x="48.28" y="0">O</tspan><tspan x="75.51" y="0">VE</tspan></text><line class="cls-8" x1="411.01" y1="212.02" x2="603.97" y2="212.02"/></g></svg>