<?xml version="1.0" encoding="utf-8"?>
<!-- Generator: Adobe Illustrator 25.1.0, SVG Export Plug-In . SVG Version: 6.00 Build 0)  -->
<svg version="1.1" id="Calque_1" xmlns="http://www.w3.org/2000/svg" xmlns:xlink="http://www.w3.org/1999/xlink" x="0px" y="0px"
	 viewBox="0 0 841.9 282.3" style="enable-background:new 0 0 841.9 282.3;" xml:space="preserve">
<style type="text/css">
	.st0{fill:#E05B13;}
	.st1{fill:#FFFFFF;}
	.st2{fill:none;}
</style>
<g>
	<circle class="st0" cx="276" cy="151.5" r="85.1"/>
	<circle class="st0" cx="339.1" cy="58.5" r="58.1"/>
	<circle class="st0" cx="478.7" cy="127.9" r="64.5"/>
	<g>
		<circle class="st0" cx="99.6" cy="73.1" r="72.3"/>
		<g>
			<g>
				<path class="st1" d="M44.1,76.4c-0.9-0.9-1.3-2.2-1.3-3.9v-6.8c0-0.3,0.1-0.5,0.3-0.7c0.2-0.2,0.4-0.3,0.7-0.3
					c0.3,0,0.5,0.1,0.7,0.3c0.2,0.2,0.3,0.4,0.3,0.7v6.9c0,1.2,0.3,2,0.8,2.6c0.6,0.6,1.4,0.9,2.5,0.9c1.1,0,1.9-0.3,2.5-0.9
					c0.6-0.6,0.8-1.5,0.8-2.6v-6.9c0-0.3,0.1-0.5,0.3-0.7s0.4-0.3,0.7-0.3s0.5,0.1,0.7,0.3c0.2,0.2,0.3,0.4,0.3,0.7v6.8
					c0,1.7-0.4,3-1.3,3.9s-2.2,1.3-3.8,1.3C46.3,77.7,45,77.2,44.1,76.4z"/>
				<path class="st1" d="M65.7,76.8c0,0.2-0.1,0.4-0.3,0.6c-0.2,0.2-0.4,0.3-0.6,0.3c-0.3,0-0.5-0.1-0.6-0.3l-3.9-4.9l-3.9,4.9
					c-0.2,0.2-0.4,0.3-0.6,0.3c-0.2,0-0.4-0.1-0.6-0.3c-0.2-0.2-0.3-0.4-0.3-0.6c0-0.2,0.1-0.4,0.2-0.6l4.1-5.1l-3.9-4.9
					C55.1,66,55,65.8,55,65.6c0-0.2,0.1-0.4,0.3-0.6c0.2-0.2,0.4-0.3,0.6-0.3c0.3,0,0.5,0.1,0.6,0.3l3.7,4.7l3.7-4.7
					c0.2-0.2,0.4-0.3,0.6-0.3c0.2,0,0.4,0.1,0.6,0.3c0.2,0.2,0.3,0.4,0.3,0.6c0,0.2-0.1,0.4-0.2,0.6l-3.9,4.9l4.1,5.1
					C65.6,76.4,65.7,76.6,65.7,76.8z"/>
				<path class="st1" d="M67.5,78.6c-0.1,0.1-0.3,0.1-0.4,0.1c-0.2,0-0.4-0.1-0.5-0.2c-0.2-0.1-0.2-0.3-0.2-0.5c0-0.1,0-0.2,0.1-0.3
					l4.2-13.2c0.1-0.2,0.2-0.3,0.3-0.4C71,64,71.1,64,71.3,64c0.2,0,0.4,0.1,0.5,0.2c0.2,0.1,0.2,0.3,0.2,0.5c0,0.1,0,0.2-0.1,0.3
					l-4.2,13.2C67.7,78.4,67.6,78.5,67.5,78.6z"/>
				<path class="st1" d="M74.5,76.4c-0.9-0.9-1.3-2.2-1.3-3.9v-6.8c0-0.3,0.1-0.5,0.3-0.7c0.2-0.2,0.4-0.3,0.7-0.3
					c0.3,0,0.5,0.1,0.7,0.3c0.2,0.2,0.3,0.4,0.3,0.7v6.9c0,1.2,0.3,2,0.8,2.6c0.6,0.6,1.4,0.9,2.5,0.9c1.1,0,1.9-0.3,2.5-0.9
					c0.6-0.6,0.8-1.5,0.8-2.6v-6.9c0-0.3,0.1-0.5,0.3-0.7s0.4-0.3,0.7-0.3s0.5,0.1,0.7,0.3c0.2,0.2,0.3,0.4,0.3,0.7v6.8
					c0,1.7-0.4,3-1.3,3.9s-2.2,1.3-3.8,1.3C76.7,77.7,75.4,77.2,74.5,76.4z"/>
				<path class="st1" d="M86.7,77.4c-0.2-0.2-0.3-0.4-0.3-0.7v-11c0-0.3,0.1-0.5,0.3-0.7c0.2-0.2,0.4-0.3,0.7-0.3
					c0.3,0,0.5,0.1,0.7,0.3c0.2,0.2,0.3,0.4,0.3,0.7v11c0,0.3-0.1,0.5-0.2,0.7s-0.4,0.3-0.7,0.3C87,77.6,86.8,77.5,86.7,77.4z"/>
				<path class="st1" d="M96.2,77.3C96,77.1,96,76.9,96,76.6V65.7c0-0.3,0.1-0.5,0.2-0.7c0.2-0.2,0.4-0.2,0.7-0.2h3.5
					c2.1,0,3.6,0.6,4.8,1.7c1.1,1.1,1.7,2.7,1.7,4.7c0,2-0.6,3.6-1.7,4.7c-1.1,1.1-2.7,1.7-4.8,1.7h-3.5
					C96.6,77.5,96.4,77.5,96.2,77.3z M105,71.2c0-3.2-1.6-4.8-4.7-4.8h-2.5V76h2.5C103.4,76,105,74.4,105,71.2z"/>
				<path class="st1" d="M116.5,75.5c0.1,0.1,0.2,0.3,0.2,0.5c0,0.3-0.2,0.6-0.6,0.9c-0.4,0.2-0.9,0.4-1.4,0.6
					c-0.5,0.1-1,0.2-1.4,0.2c-1.4,0-2.5-0.4-3.3-1.2c-0.8-0.8-1.2-1.9-1.2-3.3c0-0.9,0.2-1.7,0.5-2.4c0.4-0.7,0.9-1.2,1.5-1.6
					s1.4-0.6,2.2-0.6c1.2,0,2.1,0.4,2.8,1.1c0.7,0.8,1,1.8,1,3.1c0,0.5-0.2,0.7-0.6,0.7h-5.6c0.1,1.9,1,2.8,2.7,2.8
					c0.4,0,0.8-0.1,1.2-0.2c0.3-0.1,0.7-0.3,1-0.5c0,0,0.1-0.1,0.3-0.2s0.3-0.1,0.4-0.1C116.2,75.3,116.4,75.4,116.5,75.5z
					 M111.2,70.5c-0.4,0.4-0.7,1.1-0.8,1.9h4.6c0-0.8-0.2-1.4-0.6-1.9c-0.4-0.4-0.9-0.7-1.6-0.7C112.2,69.9,111.7,70.1,111.2,70.5z"
					/>
				<path class="st1" d="M118.7,76.9c-0.2-0.1-0.4-0.3-0.5-0.4c-0.1-0.1-0.1-0.3-0.1-0.5c0-0.2,0.1-0.4,0.2-0.5
					c0.1-0.1,0.2-0.2,0.4-0.2c0.2,0,0.4,0.1,0.7,0.3c0.4,0.2,0.7,0.3,1.1,0.5c0.3,0.1,0.8,0.2,1.3,0.2c0.6,0,1-0.1,1.4-0.3
					c0.3-0.2,0.5-0.5,0.5-0.9c0-0.2-0.1-0.4-0.2-0.6c-0.1-0.1-0.3-0.3-0.7-0.4s-0.8-0.2-1.4-0.4c-1.1-0.2-1.8-0.5-2.3-0.9
					c-0.5-0.4-0.7-0.9-0.7-1.6c0-0.5,0.1-1,0.5-1.4c0.3-0.4,0.7-0.7,1.2-1c0.5-0.2,1.1-0.3,1.8-0.3c0.5,0,0.9,0.1,1.4,0.2
					s0.9,0.3,1.2,0.5c0.4,0.3,0.6,0.6,0.6,0.9c0,0.2-0.1,0.4-0.2,0.5c-0.1,0.1-0.2,0.2-0.4,0.2c-0.1,0-0.2,0-0.3-0.1
					c-0.1,0-0.3-0.1-0.4-0.2c-0.3-0.2-0.6-0.3-0.9-0.5c-0.3-0.1-0.6-0.2-1.1-0.2c-0.5,0-0.9,0.1-1.2,0.3c-0.3,0.2-0.5,0.5-0.5,0.9
					c0,0.3,0.1,0.6,0.4,0.8c0.3,0.2,0.8,0.4,1.6,0.5c0.8,0.2,1.4,0.4,1.9,0.6c0.5,0.2,0.8,0.5,1,0.8c0.2,0.3,0.3,0.7,0.3,1.2
					c0,0.8-0.3,1.4-1,1.9c-0.7,0.5-1.5,0.7-2.6,0.7C120.5,77.7,119.5,77.4,118.7,76.9z"/>
				<path class="st1" d="M127.5,66.5c-0.2-0.2-0.3-0.4-0.3-0.8c0-0.3,0.1-0.6,0.3-0.7c0.2-0.2,0.5-0.3,0.8-0.3
					c0.3,0,0.6,0.1,0.8,0.3c0.2,0.2,0.3,0.4,0.3,0.7c0,0.3-0.1,0.6-0.3,0.8c-0.2,0.2-0.5,0.3-0.8,0.3
					C127.9,66.8,127.7,66.7,127.5,66.5z M127.6,77.4c-0.2-0.1-0.3-0.4-0.3-0.6v-7.3c0-0.3,0.1-0.5,0.3-0.7c0.2-0.1,0.4-0.2,0.7-0.2
					c0.3,0,0.5,0.1,0.6,0.2c0.2,0.2,0.3,0.4,0.3,0.7v7.3c0,0.3-0.1,0.5-0.3,0.6c-0.2,0.1-0.4,0.2-0.6,0.2
					C128,77.6,127.8,77.6,127.6,77.4z"/>
				<path class="st1" d="M139.7,68.8c0.2,0.2,0.2,0.4,0.2,0.6v7.4c0,1.3-0.4,2.4-1.1,3c-0.7,0.7-1.8,1-3.2,1c-1.3,0-2.4-0.2-3.2-0.7
					c-0.4-0.3-0.7-0.6-0.7-0.9c0-0.2,0.1-0.4,0.2-0.5c0.1-0.1,0.3-0.2,0.4-0.2c0.2,0,0.4,0.1,0.7,0.3c0.4,0.2,0.8,0.4,1.2,0.5
					c0.4,0.1,0.8,0.2,1.3,0.2c1.7,0,2.5-0.8,2.5-2.5v-1.4c-0.3,0.5-0.6,0.9-1.2,1.2c-0.5,0.3-1.1,0.4-1.8,0.4
					c-0.8,0-1.5-0.2-2.1-0.5c-0.6-0.4-1.1-0.9-1.4-1.5s-0.5-1.4-0.5-2.3s0.2-1.6,0.5-2.3s0.8-1.2,1.4-1.5c0.6-0.4,1.3-0.5,2-0.5
					c0.7,0,1.3,0.1,1.8,0.4c0.5,0.3,0.9,0.7,1.2,1.2v-0.8c0-0.3,0.1-0.5,0.2-0.6c0.2-0.2,0.4-0.2,0.7-0.2
					C139.3,68.6,139.5,68.7,139.7,68.8z M137.4,75c0.4-0.5,0.7-1.2,0.7-2.1c0-0.9-0.2-1.6-0.7-2.1c-0.4-0.5-1.1-0.8-1.8-0.8
					s-1.4,0.3-1.9,0.8c-0.5,0.5-0.7,1.2-0.7,2.1s0.2,1.6,0.7,2.1c0.5,0.5,1.1,0.8,1.9,0.8C136.4,75.8,137,75.6,137.4,75z"/>
				<path class="st1" d="M150.3,72.1v4.7c0,0.3-0.1,0.5-0.2,0.6c-0.2,0.1-0.4,0.2-0.7,0.2c-0.3,0-0.5-0.1-0.7-0.2
					c-0.2-0.2-0.2-0.4-0.2-0.6v-4.6c0-0.7-0.1-1.3-0.4-1.6s-0.8-0.5-1.4-0.5c-0.7,0-1.3,0.2-1.8,0.7c-0.4,0.5-0.7,1.1-0.7,1.8v4.2
					c0,0.3-0.1,0.5-0.2,0.6c-0.2,0.2-0.4,0.2-0.7,0.2c-0.3,0-0.5-0.1-0.7-0.2c-0.2-0.2-0.3-0.4-0.3-0.6v-7.3c0-0.3,0.1-0.5,0.3-0.6
					c0.2-0.2,0.4-0.2,0.7-0.2c0.3,0,0.5,0.1,0.6,0.2c0.2,0.2,0.2,0.4,0.2,0.6v0.7c0.3-0.5,0.7-0.9,1.2-1.2c0.5-0.3,1.1-0.4,1.7-0.4
					C149.3,68.5,150.3,69.7,150.3,72.1z"/>
			</g>
		</g>
	</g>
	<g>
		<rect x="204.5" y="142.4" class="st2" width="143" height="18.2"/>
		<path class="st1" d="M206.6,157.1c-0.2-0.2-0.3-0.4-0.3-0.8v-12.8c0-0.3,0.1-0.6,0.3-0.8c0.2-0.2,0.5-0.3,0.8-0.3h7.8
			c0.3,0,0.6,0.1,0.8,0.2c0.2,0.2,0.3,0.4,0.3,0.7c0,0.3-0.1,0.5-0.3,0.6c-0.2,0.1-0.4,0.2-0.8,0.2h-6.7v4.7h6.3
			c0.3,0,0.6,0.1,0.8,0.2c0.2,0.2,0.3,0.4,0.3,0.7s-0.1,0.5-0.3,0.7c-0.2,0.2-0.4,0.2-0.8,0.2h-6.3v4.9h6.7c0.7,0,1,0.3,1,0.9
			c0,0.3-0.1,0.5-0.3,0.7c-0.2,0.2-0.4,0.2-0.8,0.2h-7.8C207,157.4,206.8,157.3,206.6,157.1z M211.4,141.3c-0.2,0-0.3,0-0.4-0.1
			c-0.1-0.1-0.2-0.2-0.2-0.4c0-0.1,0.1-0.3,0.2-0.4l2-2.1c0.3-0.3,0.5-0.4,0.8-0.4c0.2,0,0.4,0.1,0.6,0.3c0.2,0.2,0.3,0.4,0.3,0.6
			c0,0.3-0.2,0.6-0.6,0.9l-2.4,1.6C211.7,141.3,211.6,141.3,211.4,141.3z"/>
		<path class="st1" d="M220.2,156.9c-0.8-0.4-1.3-1.1-1.8-1.9c-0.4-0.8-0.6-1.7-0.6-2.8c0-1.1,0.2-2,0.6-2.8c0.4-0.8,1-1.5,1.8-1.9
			c0.8-0.5,1.7-0.7,2.7-0.7c0.5,0,1.1,0.1,1.6,0.2c0.5,0.2,1,0.4,1.5,0.6c0.5,0.3,0.7,0.7,0.7,1.1c0,0.2-0.1,0.4-0.2,0.6
			s-0.3,0.2-0.5,0.2c-0.1,0-0.3,0-0.4-0.1c-0.1-0.1-0.3-0.2-0.5-0.3c-0.4-0.2-0.7-0.4-1-0.5c-0.3-0.1-0.7-0.2-1.1-0.2
			c-1,0-1.7,0.3-2.2,1c-0.5,0.6-0.8,1.6-0.8,2.7s0.3,2.1,0.8,2.7c0.5,0.6,1.3,0.9,2.2,0.9c0.4,0,0.8-0.1,1.1-0.2
			c0.3-0.1,0.7-0.3,1-0.5c0.2-0.1,0.3-0.2,0.5-0.3s0.3-0.1,0.4-0.1c0.2,0,0.4,0.1,0.5,0.2c0.1,0.2,0.2,0.4,0.2,0.6
			c0,0.2-0.1,0.4-0.2,0.5c-0.1,0.2-0.3,0.3-0.5,0.5c-0.4,0.3-0.9,0.5-1.5,0.7c-0.6,0.2-1.1,0.2-1.7,0.2
			C221.8,157.6,221,157.3,220.2,156.9z"/>
		<path class="st1" d="M230.5,156.9c-0.8-0.4-1.4-1.1-1.8-1.9c-0.4-0.8-0.6-1.8-0.6-2.8c0-1.1,0.2-2,0.6-2.8c0.4-0.8,1-1.4,1.8-1.9
			c0.8-0.4,1.7-0.7,2.7-0.7s1.9,0.2,2.7,0.7c0.8,0.4,1.4,1.1,1.8,1.9c0.4,0.8,0.6,1.8,0.6,2.8c0,1.1-0.2,2-0.6,2.8
			c-0.4,0.8-1,1.4-1.8,1.9c-0.8,0.4-1.7,0.7-2.7,0.7S231.2,157.3,230.5,156.9z M235.3,154.9c0.5-0.6,0.8-1.5,0.8-2.7
			c0-1.2-0.3-2.1-0.8-2.7c-0.5-0.6-1.2-0.9-2.2-0.9s-1.7,0.3-2.2,0.9c-0.5,0.6-0.8,1.5-0.8,2.7c0,1.2,0.3,2.1,0.8,2.7
			c0.5,0.6,1.2,0.9,2.2,0.9C234.1,155.9,234.8,155.6,235.3,154.9z"/>
		<path class="st1" d="M242.4,156.9c-0.8-0.4-1.3-1.1-1.8-1.9c-0.4-0.8-0.6-1.7-0.6-2.8c0-1.1,0.2-2,0.6-2.8c0.4-0.8,1-1.5,1.8-1.9
			c0.8-0.5,1.7-0.7,2.7-0.7c0.5,0,1.1,0.1,1.6,0.2c0.5,0.2,1,0.4,1.5,0.6c0.5,0.3,0.7,0.7,0.7,1.1c0,0.2-0.1,0.4-0.2,0.6
			s-0.3,0.2-0.5,0.2c-0.1,0-0.3,0-0.4-0.1c-0.1-0.1-0.3-0.2-0.5-0.3c-0.4-0.2-0.7-0.4-1-0.5c-0.3-0.1-0.7-0.2-1.1-0.2
			c-1,0-1.7,0.3-2.2,1c-0.5,0.6-0.8,1.6-0.8,2.7s0.3,2.1,0.8,2.7c0.5,0.6,1.3,0.9,2.2,0.9c0.4,0,0.8-0.1,1.1-0.2
			c0.3-0.1,0.7-0.3,1-0.5c0.2-0.1,0.3-0.2,0.5-0.3s0.3-0.1,0.4-0.1c0.2,0,0.4,0.1,0.5,0.2c0.1,0.2,0.2,0.4,0.2,0.6
			c0,0.2-0.1,0.4-0.2,0.5c-0.1,0.2-0.3,0.3-0.5,0.5c-0.4,0.3-0.9,0.5-1.5,0.7c-0.6,0.2-1.1,0.2-1.7,0.2
			C244,157.6,243.1,157.3,242.4,156.9z"/>
		<path class="st1" d="M252.6,156.9c-0.8-0.4-1.4-1.1-1.8-1.9c-0.4-0.8-0.6-1.8-0.6-2.8c0-1.1,0.2-2,0.6-2.8c0.4-0.8,1-1.4,1.8-1.9
			c0.8-0.4,1.7-0.7,2.7-0.7s1.9,0.2,2.7,0.7c0.8,0.4,1.4,1.1,1.8,1.9c0.4,0.8,0.6,1.8,0.6,2.8c0,1.1-0.2,2-0.6,2.8
			c-0.4,0.8-1,1.4-1.8,1.9c-0.8,0.4-1.7,0.7-2.7,0.7S253.4,157.3,252.6,156.9z M257.5,154.9c0.5-0.6,0.8-1.5,0.8-2.7
			c0-1.2-0.3-2.1-0.8-2.7c-0.5-0.6-1.2-0.9-2.2-0.9s-1.7,0.3-2.2,0.9c-0.5,0.6-0.8,1.5-0.8,2.7c0,1.2,0.3,2.1,0.8,2.7
			c0.5,0.6,1.2,0.9,2.2,0.9C256.3,155.9,257,155.6,257.5,154.9z"/>
		<path class="st1" d="M272,151v5.5c0,0.3-0.1,0.6-0.3,0.8c-0.2,0.2-0.5,0.3-0.8,0.3c-0.3,0-0.6-0.1-0.8-0.3
			c-0.2-0.2-0.3-0.4-0.3-0.7v-5.4c0-0.9-0.2-1.5-0.5-1.9c-0.3-0.4-0.9-0.6-1.6-0.6c-0.9,0-1.6,0.3-2.1,0.8c-0.5,0.5-0.8,1.3-0.8,2.2
			v5c0,0.3-0.1,0.6-0.3,0.7c-0.2,0.2-0.4,0.3-0.8,0.3c-0.3,0-0.6-0.1-0.8-0.3c-0.2-0.2-0.3-0.4-0.3-0.7v-8.6c0-0.3,0.1-0.5,0.3-0.7
			c0.2-0.2,0.5-0.3,0.8-0.3s0.6,0.1,0.7,0.3c0.2,0.2,0.3,0.4,0.3,0.7v0.9c0.3-0.6,0.8-1.1,1.4-1.4c0.6-0.3,1.3-0.5,2.1-0.5
			C270.8,146.8,272,148.2,272,151z"/>
		<path class="st1" d="M276.8,156.9c-0.8-0.4-1.3-1.1-1.8-1.9c-0.4-0.8-0.6-1.7-0.6-2.8c0-1.1,0.2-2,0.6-2.8c0.4-0.8,1-1.5,1.8-1.9
			c0.8-0.5,1.7-0.7,2.7-0.7c0.5,0,1.1,0.1,1.6,0.2c0.5,0.2,1,0.4,1.5,0.6c0.5,0.3,0.7,0.7,0.7,1.1c0,0.2-0.1,0.4-0.2,0.6
			s-0.3,0.2-0.5,0.2c-0.1,0-0.3,0-0.4-0.1c-0.1-0.1-0.3-0.2-0.5-0.3c-0.4-0.2-0.7-0.4-1-0.5c-0.3-0.1-0.7-0.2-1.1-0.2
			c-1,0-1.7,0.3-2.2,1c-0.5,0.6-0.8,1.6-0.8,2.7s0.3,2.1,0.8,2.7c0.5,0.6,1.3,0.9,2.2,0.9c0.4,0,0.8-0.1,1.1-0.2
			c0.3-0.1,0.7-0.3,1-0.5c0.2-0.1,0.3-0.2,0.5-0.3s0.3-0.1,0.4-0.1c0.2,0,0.4,0.1,0.5,0.2c0.1,0.2,0.2,0.4,0.2,0.6
			c0,0.2-0.1,0.4-0.2,0.5c-0.1,0.2-0.3,0.3-0.5,0.5c-0.4,0.3-0.9,0.5-1.5,0.7c-0.6,0.2-1.1,0.2-1.7,0.2
			C278.4,157.6,277.5,157.3,276.8,156.9z"/>
		<path class="st1" d="M293.8,155c0.1,0.2,0.2,0.4,0.2,0.6c0,0.4-0.3,0.8-0.8,1c-0.5,0.3-1,0.5-1.6,0.7c-0.6,0.2-1.1,0.2-1.7,0.2
			c-1.6,0-2.9-0.5-3.9-1.4c-0.9-1-1.4-2.3-1.4-3.9c0-1.1,0.2-2,0.6-2.8c0.4-0.8,1-1.5,1.8-1.9s1.6-0.7,2.6-0.7
			c1.4,0,2.5,0.4,3.3,1.3c0.8,0.9,1.2,2.1,1.2,3.6c0,0.6-0.3,0.8-0.8,0.8h-6.5c0.1,2.2,1.2,3.3,3.2,3.3c0.5,0,1-0.1,1.4-0.2
			c0.4-0.1,0.8-0.3,1.2-0.6c0,0,0.2-0.1,0.3-0.2c0.2-0.1,0.3-0.1,0.5-0.1C293.5,154.8,293.7,154.9,293.8,155z M287.6,149.2
			c-0.5,0.5-0.8,1.3-0.9,2.2h5.5c0-1-0.3-1.7-0.7-2.2s-1.1-0.8-1.9-0.8C288.8,148.4,288.1,148.7,287.6,149.2z"/>
		<path class="st1" d="M304.3,147.5c0.7,0.5,1.2,1.1,1.6,1.9c0.4,0.8,0.6,1.8,0.6,2.8c0,1.1-0.2,2-0.6,2.8c-0.4,0.8-0.9,1.4-1.6,1.9
			c-0.7,0.4-1.5,0.7-2.4,0.7c-0.8,0-1.5-0.2-2.1-0.5c-0.6-0.3-1-0.8-1.4-1.4v4.7c0,0.3-0.1,0.5-0.3,0.7c-0.2,0.2-0.4,0.3-0.8,0.3
			c-0.3,0-0.6-0.1-0.8-0.3c-0.2-0.2-0.3-0.4-0.3-0.7v-12.4c0-0.3,0.1-0.6,0.3-0.8s0.5-0.3,0.8-0.3c0.3,0,0.6,0.1,0.8,0.3
			c0.2,0.2,0.3,0.4,0.3,0.8v0.9c0.3-0.6,0.8-1.1,1.4-1.4c0.6-0.3,1.3-0.5,2.1-0.5C302.8,146.8,303.6,147,304.3,147.5z M303.6,154.9
			c0.5-0.6,0.8-1.5,0.8-2.7c0-1.2-0.3-2.1-0.8-2.7s-1.2-1-2.1-1c-0.9,0-1.6,0.3-2.1,1c-0.5,0.6-0.8,1.5-0.8,2.7
			c0,1.2,0.3,2.1,0.8,2.7c0.5,0.6,1.2,1,2.1,1S303.1,155.6,303.6,154.9z"/>
		<path class="st1" d="M314.6,156.1c0.1,0.1,0.2,0.3,0.2,0.6c0,0.3-0.1,0.5-0.3,0.6c-0.2,0.1-0.5,0.2-1,0.2l-0.6,0
			c-1.1-0.1-2-0.4-2.6-1c-0.6-0.6-0.8-1.5-0.8-2.7v-5h-1.3c-0.6,0-0.9-0.3-0.9-0.8c0-0.3,0.1-0.5,0.2-0.6c0.2-0.1,0.4-0.2,0.7-0.2
			h1.3v-2.2c0-0.3,0.1-0.6,0.3-0.8c0.2-0.2,0.4-0.3,0.8-0.3s0.6,0.1,0.8,0.3c0.2,0.2,0.3,0.4,0.3,0.8v2.2h2.1c0.3,0,0.5,0.1,0.7,0.2
			c0.2,0.1,0.2,0.3,0.2,0.6c0,0.3-0.1,0.5-0.2,0.6c-0.2,0.1-0.4,0.2-0.7,0.2h-2.1v5.1c0,0.7,0.1,1.2,0.4,1.5s0.7,0.5,1.3,0.5l0.6,0
			C314.3,155.9,314.5,156,314.6,156.1z"/>
		<path class="st1" d="M316.5,144.5c-0.2-0.2-0.4-0.5-0.4-0.9s0.1-0.7,0.4-0.9c0.2-0.2,0.6-0.3,1-0.3c0.4,0,0.7,0.1,1,0.3
			c0.2,0.2,0.4,0.5,0.4,0.9s-0.1,0.7-0.4,0.9s-0.6,0.3-1,0.3C317,144.8,316.7,144.7,316.5,144.5z M316.7,157.3
			c-0.2-0.2-0.3-0.4-0.3-0.8v-8.6c0-0.3,0.1-0.6,0.3-0.8c0.2-0.2,0.5-0.3,0.8-0.3s0.6,0.1,0.8,0.3c0.2,0.2,0.3,0.4,0.3,0.8v8.6
			c0,0.3-0.1,0.6-0.3,0.8c-0.2,0.2-0.5,0.3-0.8,0.3S316.9,157.4,316.7,157.3z"/>
		<path class="st1" d="M323.3,156.9c-0.8-0.4-1.4-1.1-1.8-1.9c-0.4-0.8-0.6-1.8-0.6-2.8c0-1.1,0.2-2,0.6-2.8c0.4-0.8,1-1.4,1.8-1.9
			c0.8-0.4,1.7-0.7,2.7-0.7s1.9,0.2,2.7,0.7c0.8,0.4,1.4,1.1,1.8,1.9c0.4,0.8,0.6,1.8,0.6,2.8c0,1.1-0.2,2-0.6,2.8
			c-0.4,0.8-1,1.4-1.8,1.9c-0.8,0.4-1.7,0.7-2.7,0.7S324.1,157.3,323.3,156.9z M328.1,154.9c0.5-0.6,0.8-1.5,0.8-2.7
			c0-1.2-0.3-2.1-0.8-2.7c-0.5-0.6-1.2-0.9-2.2-0.9s-1.7,0.3-2.2,0.9c-0.5,0.6-0.8,1.5-0.8,2.7c0,1.2,0.3,2.1,0.8,2.7
			c0.5,0.6,1.2,0.9,2.2,0.9C326.9,155.9,327.6,155.6,328.1,154.9z"/>
		<path class="st1" d="M342.7,151v5.5c0,0.3-0.1,0.6-0.3,0.8c-0.2,0.2-0.5,0.3-0.8,0.3c-0.3,0-0.6-0.1-0.8-0.3
			c-0.2-0.2-0.3-0.4-0.3-0.7v-5.4c0-0.9-0.2-1.5-0.5-1.9c-0.3-0.4-0.9-0.6-1.6-0.6c-0.9,0-1.6,0.3-2.1,0.8c-0.5,0.5-0.8,1.3-0.8,2.2
			v5c0,0.3-0.1,0.6-0.3,0.7c-0.2,0.2-0.4,0.3-0.8,0.3c-0.3,0-0.6-0.1-0.8-0.3c-0.2-0.2-0.3-0.4-0.3-0.7v-8.6c0-0.3,0.1-0.5,0.3-0.7
			c0.2-0.2,0.5-0.3,0.8-0.3s0.6,0.1,0.7,0.3c0.2,0.2,0.3,0.4,0.3,0.7v0.9c0.3-0.6,0.8-1.1,1.4-1.4c0.6-0.3,1.3-0.5,2.1-0.5
			C341.5,146.8,342.7,148.2,342.7,151z"/>
	</g>
	<g>
		<rect x="289.1" y="51.2" class="st2" width="100.1" height="14.6"/>
		<path class="st1" d="M301.1,62.5c0,0.2-0.1,0.4-0.3,0.5c-0.2,0.1-0.4,0.2-0.6,0.2c-0.1,0-0.3,0-0.4-0.1c-0.1-0.1-0.2-0.2-0.3-0.4
			l-1.1-2.6h-6.2l-1.1,2.6c-0.1,0.2-0.2,0.3-0.3,0.4c-0.1,0.1-0.3,0.1-0.4,0.1c-0.2,0-0.4-0.1-0.6-0.2c-0.2-0.1-0.3-0.3-0.3-0.5
			c0-0.1,0-0.2,0.1-0.3l4.8-10.5c0.1-0.2,0.2-0.3,0.4-0.4c0.2-0.1,0.4-0.2,0.6-0.2s0.4,0.1,0.6,0.2c0.2,0.1,0.3,0.2,0.4,0.4
			l4.8,10.5C301.1,62.3,301.1,62.5,301.1,62.5z M292.8,58.9h5l-2.5-5.6L292.8,58.9z"/>
		<path class="st1" d="M304.2,62.8c-0.6-0.4-1.1-0.9-1.4-1.5s-0.5-1.4-0.5-2.2c0-0.9,0.2-1.6,0.5-2.3c0.3-0.7,0.8-1.2,1.5-1.5
			c0.6-0.4,1.3-0.5,2.1-0.5c0.4,0,0.9,0.1,1.3,0.2c0.4,0.1,0.8,0.3,1.2,0.5c0.4,0.2,0.5,0.5,0.5,0.9c0,0.2-0.1,0.4-0.2,0.5
			c-0.1,0.1-0.2,0.2-0.4,0.2c-0.1,0-0.2,0-0.3-0.1s-0.2-0.1-0.4-0.2c-0.3-0.2-0.5-0.3-0.8-0.4c-0.2-0.1-0.5-0.1-0.9-0.1
			c-0.8,0-1.4,0.3-1.8,0.8c-0.4,0.5-0.6,1.2-0.6,2.2s0.2,1.6,0.6,2.2c0.4,0.5,1,0.8,1.8,0.8c0.3,0,0.6-0.1,0.9-0.2
			c0.3-0.1,0.5-0.2,0.8-0.4c0.1-0.1,0.2-0.1,0.4-0.2s0.2-0.1,0.3-0.1c0.2,0,0.3,0.1,0.4,0.2c0.1,0.1,0.2,0.3,0.2,0.5
			c0,0.2,0,0.3-0.1,0.4c-0.1,0.1-0.2,0.3-0.4,0.4c-0.3,0.2-0.7,0.4-1.2,0.5c-0.5,0.1-0.9,0.2-1.4,0.2
			C305.5,63.3,304.8,63.2,304.2,62.8z"/>
		<path class="st1" d="M312.4,62.8c-0.6-0.4-1.1-0.9-1.4-1.5s-0.5-1.4-0.5-2.2c0-0.9,0.2-1.6,0.5-2.3c0.3-0.7,0.8-1.2,1.5-1.5
			c0.6-0.4,1.3-0.5,2.1-0.5c0.4,0,0.9,0.1,1.3,0.2c0.4,0.1,0.8,0.3,1.2,0.5c0.4,0.2,0.5,0.5,0.5,0.9c0,0.2-0.1,0.4-0.2,0.5
			c-0.1,0.1-0.2,0.2-0.4,0.2c-0.1,0-0.2,0-0.3-0.1s-0.2-0.1-0.4-0.2c-0.3-0.2-0.5-0.3-0.8-0.4c-0.2-0.1-0.5-0.1-0.9-0.1
			c-0.8,0-1.4,0.3-1.8,0.8c-0.4,0.5-0.6,1.2-0.6,2.2s0.2,1.6,0.6,2.2c0.4,0.5,1,0.8,1.8,0.8c0.3,0,0.6-0.1,0.9-0.2
			c0.3-0.1,0.5-0.2,0.8-0.4c0.1-0.1,0.2-0.1,0.4-0.2s0.2-0.1,0.3-0.1c0.2,0,0.3,0.1,0.4,0.2c0.1,0.1,0.2,0.3,0.2,0.5
			c0,0.2,0,0.3-0.1,0.4c-0.1,0.1-0.2,0.3-0.4,0.4c-0.3,0.2-0.7,0.4-1.2,0.5c-0.5,0.1-0.9,0.2-1.4,0.2
			C313.7,63.3,313,63.2,312.4,62.8z"/>
		<path class="st1" d="M326.1,61.3c0.1,0.1,0.2,0.3,0.2,0.5c0,0.3-0.2,0.6-0.6,0.8c-0.4,0.2-0.8,0.4-1.3,0.5
			c-0.5,0.1-0.9,0.2-1.4,0.2c-1.3,0-2.4-0.4-3.1-1.1c-0.8-0.8-1.1-1.8-1.1-3.1c0-0.9,0.2-1.6,0.5-2.3c0.3-0.7,0.8-1.2,1.4-1.5
			c0.6-0.4,1.3-0.5,2.1-0.5c1.1,0,2,0.4,2.6,1.1c0.6,0.7,1,1.7,1,2.9c0,0.5-0.2,0.7-0.6,0.7h-5.3c0.1,1.8,1,2.6,2.5,2.6
			c0.4,0,0.8-0.1,1.1-0.2s0.6-0.3,1-0.4c0,0,0.1-0.1,0.3-0.1c0.2-0.1,0.3-0.1,0.4-0.1C325.8,61.1,326,61.2,326.1,61.3z M321.1,56.6
			c-0.4,0.4-0.6,1-0.7,1.8h4.4c0-0.8-0.2-1.4-0.6-1.8s-0.9-0.6-1.5-0.6C322.1,56,321.5,56.2,321.1,56.6z"/>
		<path class="st1" d="M328.2,62.6c-0.2-0.1-0.3-0.3-0.4-0.4c-0.1-0.1-0.1-0.3-0.1-0.5c0-0.2,0.1-0.3,0.2-0.5s0.2-0.2,0.4-0.2
			c0.1,0,0.4,0.1,0.7,0.3c0.3,0.2,0.7,0.3,1,0.4s0.7,0.2,1.2,0.2c0.5,0,1-0.1,1.3-0.3c0.3-0.2,0.5-0.5,0.5-0.8
			c0-0.2-0.1-0.4-0.2-0.5c-0.1-0.1-0.3-0.3-0.6-0.4s-0.7-0.2-1.3-0.3c-1-0.2-1.7-0.5-2.2-0.9c-0.4-0.4-0.7-0.9-0.7-1.5
			c0-0.5,0.1-0.9,0.4-1.3c0.3-0.4,0.7-0.7,1.2-0.9s1.1-0.3,1.7-0.3c0.5,0,0.9,0.1,1.3,0.2c0.4,0.1,0.8,0.3,1.1,0.5
			c0.4,0.2,0.6,0.5,0.6,0.9c0,0.2-0.1,0.3-0.2,0.5c-0.1,0.1-0.2,0.2-0.4,0.2c-0.1,0-0.2,0-0.3-0.1s-0.2-0.1-0.4-0.2
			c-0.3-0.2-0.6-0.3-0.9-0.4c-0.3-0.1-0.6-0.2-1-0.2c-0.5,0-0.9,0.1-1.1,0.3s-0.4,0.5-0.4,0.8c0,0.3,0.1,0.6,0.4,0.7
			s0.8,0.3,1.5,0.5c0.8,0.2,1.4,0.3,1.8,0.5c0.4,0.2,0.7,0.5,0.9,0.8c0.2,0.3,0.3,0.7,0.3,1.1c0,0.7-0.3,1.3-0.9,1.8
			s-1.4,0.7-2.5,0.7C329.9,63.3,329,63.1,328.2,62.6z"/>
		<path class="st1" d="M336.4,62.6c-0.2-0.1-0.3-0.3-0.4-0.4c-0.1-0.1-0.1-0.3-0.1-0.5c0-0.2,0.1-0.3,0.2-0.5s0.2-0.2,0.4-0.2
			c0.1,0,0.4,0.1,0.7,0.3c0.3,0.2,0.7,0.3,1,0.4s0.7,0.2,1.2,0.2c0.5,0,1-0.1,1.3-0.3c0.3-0.2,0.5-0.5,0.5-0.8
			c0-0.2-0.1-0.4-0.2-0.5c-0.1-0.1-0.3-0.3-0.6-0.4s-0.7-0.2-1.3-0.3c-1-0.2-1.7-0.5-2.2-0.9c-0.4-0.4-0.7-0.9-0.7-1.5
			c0-0.5,0.1-0.9,0.4-1.3c0.3-0.4,0.7-0.7,1.2-0.9s1.1-0.3,1.7-0.3c0.5,0,0.9,0.1,1.3,0.2c0.4,0.1,0.8,0.3,1.1,0.5
			c0.4,0.2,0.6,0.5,0.6,0.9c0,0.2-0.1,0.3-0.2,0.5c-0.1,0.1-0.2,0.2-0.4,0.2c-0.1,0-0.2,0-0.3-0.1s-0.2-0.1-0.4-0.2
			c-0.3-0.2-0.6-0.3-0.9-0.4c-0.3-0.1-0.6-0.2-1-0.2c-0.5,0-0.9,0.1-1.1,0.3s-0.4,0.5-0.4,0.8c0,0.3,0.1,0.6,0.4,0.7
			s0.8,0.3,1.5,0.5c0.8,0.2,1.4,0.3,1.8,0.5c0.4,0.2,0.7,0.5,0.9,0.8c0.2,0.3,0.3,0.7,0.3,1.1c0,0.7-0.3,1.3-0.9,1.8
			s-1.4,0.7-2.5,0.7C338.1,63.3,337.2,63.1,336.4,62.6z"/>
		<path class="st1" d="M344.7,52.8c-0.2-0.2-0.3-0.4-0.3-0.7s0.1-0.5,0.3-0.7c0.2-0.2,0.5-0.3,0.8-0.3c0.3,0,0.6,0.1,0.8,0.3
			c0.2,0.2,0.3,0.4,0.3,0.7s-0.1,0.5-0.3,0.7s-0.5,0.3-0.8,0.3C345.1,53.1,344.9,53,344.7,52.8z M344.8,63.1
			c-0.2-0.1-0.2-0.3-0.2-0.6v-6.9c0-0.3,0.1-0.5,0.2-0.6c0.2-0.1,0.4-0.2,0.6-0.2c0.2,0,0.5,0.1,0.6,0.2c0.2,0.1,0.2,0.3,0.2,0.6
			v6.9c0,0.3-0.1,0.5-0.2,0.6c-0.2,0.1-0.4,0.2-0.6,0.2C345.2,63.3,345,63.2,344.8,63.1z"/>
		<path class="st1" d="M355.1,55.3c0.6,0.4,1,0.9,1.3,1.5s0.5,1.4,0.5,2.3c0,0.9-0.2,1.6-0.5,2.3c-0.3,0.7-0.7,1.2-1.3,1.5
			c-0.6,0.4-1.2,0.5-1.9,0.5c-0.6,0-1.2-0.1-1.7-0.4c-0.5-0.3-0.8-0.6-1.1-1.1v0.7c0,0.2-0.1,0.5-0.2,0.6c-0.2,0.2-0.4,0.2-0.6,0.2
			c-0.3,0-0.5-0.1-0.6-0.2c-0.2-0.2-0.2-0.4-0.2-0.6V52c0-0.2,0.1-0.4,0.2-0.6c0.2-0.1,0.4-0.2,0.6-0.2c0.2,0,0.5,0.1,0.6,0.2
			c0.2,0.1,0.2,0.3,0.2,0.6v4.4c0.2-0.5,0.6-0.9,1.1-1.2c0.5-0.3,1-0.4,1.7-0.4C353.9,54.7,354.5,54.9,355.1,55.3z M354.5,61.2
			c0.4-0.5,0.6-1.3,0.6-2.2c0-0.9-0.2-1.6-0.6-2.2c-0.4-0.5-1-0.8-1.7-0.8s-1.3,0.3-1.7,0.8c-0.4,0.5-0.6,1.2-0.6,2.2
			s0.2,1.7,0.6,2.2c0.4,0.5,1,0.8,1.7,0.8C353.5,62,354.1,61.7,354.5,61.2z"/>
		<path class="st1" d="M358.8,52.8c-0.2-0.2-0.3-0.4-0.3-0.7s0.1-0.5,0.3-0.7c0.2-0.2,0.5-0.3,0.8-0.3c0.3,0,0.6,0.1,0.8,0.3
			c0.2,0.2,0.3,0.4,0.3,0.7s-0.1,0.5-0.3,0.7s-0.5,0.3-0.8,0.3C359.3,53.1,359,53,358.8,52.8z M359,63.1c-0.2-0.1-0.2-0.3-0.2-0.6
			v-6.9c0-0.3,0.1-0.5,0.2-0.6c0.2-0.1,0.4-0.2,0.6-0.2c0.2,0,0.5,0.1,0.6,0.2c0.2,0.1,0.2,0.3,0.2,0.6v6.9c0,0.3-0.1,0.5-0.2,0.6
			c-0.2,0.1-0.4,0.2-0.6,0.2C359.4,63.3,359.2,63.2,359,63.1z"/>
		<path class="st1" d="M363.1,63.1c-0.2-0.1-0.2-0.3-0.2-0.6V52c0-0.3,0.1-0.5,0.2-0.6c0.2-0.1,0.4-0.2,0.6-0.2
			c0.2,0,0.5,0.1,0.6,0.2c0.2,0.1,0.2,0.3,0.2,0.6v10.5c0,0.3-0.1,0.5-0.2,0.6c-0.2,0.1-0.4,0.2-0.6,0.2
			C363.5,63.3,363.3,63.2,363.1,63.1z"/>
		<path class="st1" d="M367.1,52.8c-0.2-0.2-0.3-0.4-0.3-0.7s0.1-0.5,0.3-0.7c0.2-0.2,0.5-0.3,0.8-0.3c0.3,0,0.6,0.1,0.8,0.3
			c0.2,0.2,0.3,0.4,0.3,0.7s-0.1,0.5-0.3,0.7s-0.5,0.3-0.8,0.3C367.5,53.1,367.3,53,367.1,52.8z M367.2,63.1
			c-0.2-0.1-0.2-0.3-0.2-0.6v-6.9c0-0.3,0.1-0.5,0.2-0.6c0.2-0.1,0.4-0.2,0.6-0.2c0.2,0,0.5,0.1,0.6,0.2c0.2,0.1,0.2,0.3,0.2,0.6
			v6.9c0,0.3-0.1,0.5-0.2,0.6c-0.2,0.1-0.4,0.2-0.6,0.2C367.6,63.3,367.4,63.2,367.2,63.1z"/>
		<path class="st1" d="M375.9,62.2c0.1,0.1,0.2,0.3,0.2,0.5c0,0.2-0.1,0.4-0.3,0.5s-0.4,0.2-0.8,0.1l-0.5,0
			c-0.9-0.1-1.6-0.3-2.1-0.8s-0.7-1.2-0.7-2.2v-4h-1c-0.5,0-0.7-0.2-0.7-0.7c0-0.2,0.1-0.4,0.2-0.5s0.3-0.2,0.6-0.2h1v-1.8
			c0-0.3,0.1-0.5,0.2-0.6c0.2-0.1,0.4-0.2,0.6-0.2c0.3,0,0.5,0.1,0.6,0.2c0.2,0.1,0.2,0.4,0.2,0.6v1.8h1.7c0.2,0,0.4,0.1,0.6,0.2
			s0.2,0.3,0.2,0.5c0,0.2-0.1,0.4-0.2,0.5s-0.3,0.2-0.6,0.2h-1.7v4.1c0,0.5,0.1,0.9,0.3,1.2c0.2,0.2,0.6,0.4,1,0.4l0.5,0
			C375.6,62,375.8,62.1,375.9,62.2z"/>
		<path class="st1" d="M384.2,61.3c0.1,0.1,0.2,0.3,0.2,0.5c0,0.3-0.2,0.6-0.6,0.8c-0.4,0.2-0.8,0.4-1.3,0.5
			c-0.5,0.1-0.9,0.2-1.4,0.2c-1.3,0-2.4-0.4-3.1-1.1c-0.8-0.8-1.1-1.8-1.1-3.1c0-0.9,0.2-1.6,0.5-2.3c0.3-0.7,0.8-1.2,1.4-1.5
			c0.6-0.4,1.3-0.5,2.1-0.5c1.1,0,2,0.4,2.6,1.1c0.6,0.7,1,1.7,1,2.9c0,0.5-0.2,0.7-0.6,0.7h-5.3c0.1,1.8,1,2.6,2.5,2.6
			c0.4,0,0.8-0.1,1.1-0.2s0.6-0.3,1-0.4c0,0,0.1-0.1,0.3-0.1c0.2-0.1,0.3-0.1,0.4-0.1C384,61.1,384.1,61.2,384.2,61.3z M379.3,56.6
			c-0.4,0.4-0.6,1-0.7,1.8h4.4c0-0.8-0.2-1.4-0.6-1.8s-0.9-0.6-1.5-0.6C380.2,56,379.7,56.2,379.3,56.6z M380.9,53.9
			c-0.1,0-0.2,0-0.3-0.1s-0.1-0.2-0.1-0.3c0-0.1,0-0.2,0.1-0.3l1.8-2.4c0.2-0.3,0.5-0.5,0.8-0.5c0.2,0,0.4,0.1,0.5,0.2
			s0.2,0.3,0.2,0.5c0,0.3-0.1,0.5-0.4,0.7l-2.3,2C381.1,53.9,381,53.9,380.9,53.9z"/>
	</g>
	<g>
		<rect x="428.7" y="109.6" class="st2" width="100" height="36.7"/>
		<path class="st1" d="M444.9,121.6c0,0.2-0.1,0.4-0.3,0.6c-0.2,0.2-0.4,0.2-0.6,0.2c-0.2,0-0.3,0-0.4-0.1s-0.2-0.2-0.3-0.4
			l-1.2-2.7h-6.6l-1.2,2.7c-0.1,0.2-0.2,0.3-0.3,0.4c-0.1,0.1-0.3,0.1-0.5,0.1c-0.2,0-0.5-0.1-0.6-0.2c-0.2-0.2-0.3-0.3-0.3-0.6
			c0-0.1,0-0.2,0.1-0.4l5.1-11.1c0.1-0.2,0.2-0.3,0.4-0.5c0.2-0.1,0.4-0.2,0.6-0.2c0.2,0,0.4,0.1,0.6,0.2c0.2,0.1,0.3,0.3,0.4,0.5
			l5.1,11.1C444.9,121.4,444.9,121.5,444.9,121.6z M436.2,117.7h5.3l-2.6-6L436.2,117.7z"/>
		<path class="st1" d="M454.5,116.9v4.7c0,0.3-0.1,0.5-0.2,0.6c-0.2,0.1-0.4,0.2-0.7,0.2c-0.3,0-0.5-0.1-0.7-0.2
			c-0.2-0.2-0.2-0.4-0.2-0.6V117c0-0.7-0.1-1.3-0.4-1.6s-0.8-0.5-1.4-0.5c-0.7,0-1.3,0.2-1.8,0.7c-0.4,0.5-0.7,1.1-0.7,1.8v4.2
			c0,0.3-0.1,0.5-0.2,0.6c-0.2,0.2-0.4,0.2-0.7,0.2s-0.5-0.1-0.7-0.2c-0.2-0.2-0.3-0.4-0.3-0.6v-7.3c0-0.3,0.1-0.5,0.3-0.6
			c0.2-0.2,0.4-0.2,0.7-0.2s0.5,0.1,0.6,0.2c0.2,0.2,0.2,0.4,0.2,0.6v0.7c0.3-0.5,0.7-0.9,1.2-1.2c0.5-0.3,1.1-0.4,1.7-0.4
			C453.5,113.3,454.5,114.5,454.5,116.9z"/>
		<path class="st1" d="M457.1,111.3c-0.2-0.2-0.3-0.4-0.3-0.8c0-0.3,0.1-0.6,0.3-0.7c0.2-0.2,0.5-0.3,0.8-0.3c0.3,0,0.6,0.1,0.8,0.3
			c0.2,0.2,0.3,0.4,0.3,0.7c0,0.3-0.1,0.6-0.3,0.8c-0.2,0.2-0.5,0.3-0.8,0.3C457.6,111.6,457.3,111.5,457.1,111.3z M457.3,122.2
			c-0.2-0.1-0.3-0.4-0.3-0.6v-7.3c0-0.3,0.1-0.5,0.3-0.7c0.2-0.1,0.4-0.2,0.7-0.2s0.5,0.1,0.6,0.2c0.2,0.2,0.3,0.4,0.3,0.7v7.3
			c0,0.3-0.1,0.5-0.3,0.6s-0.4,0.2-0.6,0.2S457.5,122.4,457.3,122.2z"/>
		<path class="st1" d="M474.4,116.9v4.7c0,0.3-0.1,0.5-0.3,0.6c-0.2,0.1-0.4,0.2-0.7,0.2c-0.3,0-0.5-0.1-0.6-0.2
			c-0.2-0.2-0.3-0.4-0.3-0.6v-4.7c0-0.7-0.1-1.3-0.4-1.6c-0.3-0.3-0.7-0.5-1.2-0.5c-0.7,0-1.2,0.2-1.6,0.7c-0.4,0.4-0.6,1.1-0.6,1.8
			v4.2c0,0.3-0.1,0.5-0.3,0.6c-0.2,0.1-0.4,0.2-0.7,0.2c-0.3,0-0.5-0.1-0.6-0.2c-0.2-0.2-0.3-0.4-0.3-0.6v-4.7
			c0-0.7-0.1-1.3-0.4-1.6c-0.3-0.3-0.7-0.5-1.2-0.5c-0.7,0-1.2,0.2-1.6,0.7c-0.4,0.4-0.6,1.1-0.6,1.8v4.2c0,0.3-0.1,0.5-0.3,0.6
			c-0.2,0.1-0.4,0.2-0.6,0.2s-0.5-0.1-0.7-0.2c-0.2-0.2-0.3-0.4-0.3-0.6v-7.3c0-0.3,0.1-0.5,0.3-0.6c0.2-0.2,0.4-0.2,0.6-0.2
			s0.5,0.1,0.6,0.2c0.2,0.2,0.2,0.4,0.2,0.6v0.7c0.3-0.5,0.6-0.9,1.1-1.2c0.5-0.3,1-0.4,1.6-0.4c0.7,0,1.2,0.1,1.7,0.4
			s0.8,0.7,1,1.3c0.3-0.5,0.7-0.9,1.2-1.2c0.5-0.3,1.1-0.5,1.8-0.5C473.4,113.3,474.4,114.5,474.4,116.9z"/>
		<path class="st1" d="M483.2,114.2c0.6,0.6,0.9,1.5,0.9,2.7v4.7c0,0.3-0.1,0.5-0.2,0.6c-0.2,0.1-0.4,0.2-0.6,0.2
			c-0.3,0-0.5-0.1-0.6-0.2c-0.2-0.2-0.2-0.4-0.2-0.6v-0.7c-0.2,0.5-0.6,0.9-1,1.2c-0.4,0.3-1,0.4-1.6,0.4c-0.6,0-1.1-0.1-1.6-0.4
			c-0.5-0.2-0.8-0.6-1.1-1c-0.3-0.4-0.4-0.9-0.4-1.4c0-0.6,0.1-1.2,0.5-1.5c0.3-0.4,0.9-0.6,1.6-0.8s1.8-0.2,3.1-0.2h0.4v-0.5
			c0-0.7-0.1-1.2-0.4-1.5c-0.3-0.3-0.7-0.4-1.3-0.4c-0.4,0-0.8,0.1-1.2,0.2c-0.4,0.1-0.8,0.3-1.2,0.5c-0.3,0.2-0.6,0.3-0.7,0.3
			c-0.2,0-0.3-0.1-0.4-0.2c-0.1-0.1-0.2-0.3-0.2-0.5c0-0.2,0.1-0.3,0.2-0.5s0.3-0.3,0.5-0.4c0.4-0.2,0.9-0.4,1.5-0.5
			c0.6-0.1,1.1-0.2,1.6-0.2C481.7,113.3,482.6,113.6,483.2,114.2z M481.6,120.5c0.4-0.4,0.6-1,0.6-1.7v-0.5H482
			c-0.9,0-1.7,0-2.2,0.1s-0.9,0.2-1.1,0.4c-0.2,0.2-0.3,0.5-0.3,0.9c0,0.4,0.2,0.8,0.5,1.1c0.3,0.3,0.7,0.4,1.2,0.4
			C480.7,121.1,481.2,120.9,481.6,120.5z"/>
		<path class="st1" d="M491.4,121.3c0.1,0.1,0.2,0.3,0.2,0.5c0,0.2-0.1,0.4-0.3,0.5c-0.2,0.1-0.5,0.2-0.8,0.2l-0.5,0
			c-1-0.1-1.7-0.4-2.2-0.9c-0.5-0.5-0.7-1.3-0.7-2.3V115H486c-0.5,0-0.8-0.2-0.8-0.7c0-0.2,0.1-0.4,0.2-0.5c0.1-0.1,0.3-0.2,0.6-0.2
			h1.1v-1.9c0-0.3,0.1-0.5,0.2-0.6c0.2-0.2,0.4-0.2,0.7-0.2s0.5,0.1,0.7,0.2c0.2,0.2,0.3,0.4,0.3,0.6v1.9h1.8c0.3,0,0.4,0.1,0.6,0.2
			s0.2,0.3,0.2,0.5c0,0.2-0.1,0.4-0.2,0.5s-0.3,0.2-0.6,0.2h-1.8v4.4c0,0.6,0.1,1,0.4,1.2c0.2,0.3,0.6,0.4,1.1,0.5l0.5,0
			C491.1,121.1,491.3,121.1,491.4,121.3z"/>
		<path class="st1" d="M493,111.3c-0.2-0.2-0.3-0.4-0.3-0.8c0-0.3,0.1-0.6,0.3-0.7c0.2-0.2,0.5-0.3,0.8-0.3c0.3,0,0.6,0.1,0.8,0.3
			c0.2,0.2,0.3,0.4,0.3,0.7c0,0.3-0.1,0.6-0.3,0.8c-0.2,0.2-0.5,0.3-0.8,0.3C493.4,111.6,493.2,111.5,493,111.3z M493.1,122.2
			c-0.2-0.1-0.3-0.4-0.3-0.6v-7.3c0-0.3,0.1-0.5,0.3-0.7c0.2-0.1,0.4-0.2,0.7-0.2s0.5,0.1,0.6,0.2c0.2,0.2,0.3,0.4,0.3,0.7v7.3
			c0,0.3-0.1,0.5-0.3,0.6s-0.4,0.2-0.6,0.2S493.3,122.4,493.1,122.2z"/>
		<path class="st1" d="M498.8,121.9c-0.7-0.4-1.2-0.9-1.5-1.6c-0.4-0.7-0.5-1.5-0.5-2.4c0-0.9,0.2-1.7,0.5-2.4
			c0.4-0.7,0.9-1.2,1.5-1.6c0.7-0.4,1.4-0.6,2.3-0.6s1.6,0.2,2.3,0.6c0.7,0.4,1.2,0.9,1.5,1.6c0.4,0.7,0.5,1.5,0.5,2.4
			c0,0.9-0.2,1.7-0.5,2.4c-0.4,0.7-0.9,1.2-1.5,1.6c-0.7,0.4-1.4,0.6-2.3,0.6S499.4,122.3,498.8,121.9z M502.9,120.2
			c0.4-0.5,0.6-1.3,0.6-2.3c0-1-0.2-1.8-0.6-2.3c-0.4-0.5-1-0.8-1.8-0.8s-1.4,0.3-1.8,0.8c-0.4,0.5-0.6,1.3-0.6,2.3
			c0,1,0.2,1.8,0.6,2.3c0.4,0.5,1,0.8,1.8,0.8C501.9,121,502.5,120.8,502.9,120.2z"/>
		<path class="st1" d="M515.3,116.9v4.7c0,0.3-0.1,0.5-0.2,0.6c-0.2,0.1-0.4,0.2-0.7,0.2c-0.3,0-0.5-0.1-0.7-0.2
			c-0.2-0.2-0.2-0.4-0.2-0.6V117c0-0.7-0.1-1.3-0.4-1.6s-0.8-0.5-1.4-0.5c-0.7,0-1.3,0.2-1.8,0.7c-0.4,0.5-0.7,1.1-0.7,1.8v4.2
			c0,0.3-0.1,0.5-0.2,0.6c-0.2,0.2-0.4,0.2-0.7,0.2s-0.5-0.1-0.7-0.2c-0.2-0.2-0.3-0.4-0.3-0.6v-7.3c0-0.3,0.1-0.5,0.3-0.6
			c0.2-0.2,0.4-0.2,0.7-0.2s0.5,0.1,0.6,0.2c0.2,0.2,0.2,0.4,0.2,0.6v0.7c0.3-0.5,0.7-0.9,1.2-1.2c0.5-0.3,1.1-0.4,1.7-0.4
			C514.2,113.3,515.3,114.5,515.3,116.9z"/>
		<path class="st1" d="M517.8,121.7c-0.2-0.1-0.4-0.3-0.5-0.4c-0.1-0.1-0.1-0.3-0.1-0.5c0-0.2,0.1-0.4,0.2-0.5
			c0.1-0.1,0.2-0.2,0.4-0.2c0.2,0,0.4,0.1,0.7,0.3c0.4,0.2,0.7,0.3,1.1,0.5s0.8,0.2,1.3,0.2c0.6,0,1-0.1,1.3-0.3
			c0.3-0.2,0.5-0.5,0.5-0.9c0-0.2-0.1-0.4-0.2-0.6c-0.1-0.1-0.3-0.3-0.7-0.4c-0.3-0.1-0.8-0.2-1.4-0.4c-1.1-0.2-1.8-0.5-2.3-0.9
			s-0.7-0.9-0.7-1.6c0-0.5,0.2-1,0.5-1.4s0.7-0.7,1.2-1c0.5-0.2,1.1-0.3,1.8-0.3c0.5,0,0.9,0.1,1.4,0.2s0.9,0.3,1.2,0.5
			c0.4,0.3,0.6,0.6,0.6,0.9c0,0.2-0.1,0.4-0.2,0.5c-0.1,0.1-0.2,0.2-0.4,0.2c-0.1,0-0.2,0-0.3-0.1c-0.1,0-0.3-0.1-0.4-0.2
			c-0.3-0.2-0.6-0.3-0.9-0.5s-0.6-0.2-1.1-0.2c-0.5,0-0.9,0.1-1.2,0.3c-0.3,0.2-0.5,0.5-0.5,0.9c0,0.3,0.1,0.6,0.4,0.8
			c0.3,0.2,0.8,0.4,1.6,0.5c0.8,0.2,1.4,0.4,1.9,0.6c0.5,0.2,0.8,0.5,1,0.8c0.2,0.3,0.3,0.7,0.3,1.2c0,0.8-0.3,1.4-1,1.9
			c-0.7,0.5-1.5,0.7-2.6,0.7C519.6,122.5,518.6,122.2,517.8,121.7z"/>
		<path class="st1" d="M460,135.1c0.1-0.1,0.3-0.1,0.4-0.1c0.2,0,0.4,0.1,0.6,0.2c0.2,0.2,0.3,0.3,0.3,0.6c0,0.1,0,0.2-0.1,0.3
			l-3.4,7.3c-0.1,0.2-0.2,0.3-0.4,0.4s-0.4,0.2-0.5,0.2c-0.2,0-0.4-0.1-0.5-0.2s-0.3-0.2-0.4-0.4l-3.4-7.3c0-0.1-0.1-0.2-0.1-0.3
			c0-0.2,0.1-0.4,0.3-0.6c0.2-0.2,0.4-0.2,0.6-0.2c0.3,0,0.6,0.2,0.8,0.5l2.8,6.2l2.8-6.2C459.8,135.3,459.9,135.2,460,135.1z"/>
		<path class="st1" d="M463.2,132.9c-0.2-0.2-0.3-0.4-0.3-0.8c0-0.3,0.1-0.6,0.3-0.7c0.2-0.2,0.5-0.3,0.8-0.3c0.3,0,0.6,0.1,0.8,0.3
			c0.2,0.2,0.3,0.4,0.3,0.7c0,0.3-0.1,0.6-0.3,0.8c-0.2,0.2-0.5,0.3-0.8,0.3C463.6,133.2,463.4,133.1,463.2,132.9z M463.3,143.8
			c-0.2-0.1-0.3-0.4-0.3-0.6v-7.3c0-0.3,0.1-0.5,0.3-0.7c0.2-0.1,0.4-0.2,0.7-0.2s0.5,0.1,0.6,0.2c0.2,0.2,0.3,0.4,0.3,0.7v7.3
			c0,0.3-0.1,0.5-0.3,0.6s-0.4,0.2-0.6,0.2S463.5,144,463.3,143.8z"/>
		<path class="st1" d="M475.3,131.4c0.2,0.2,0.3,0.4,0.3,0.6v11.1c0,0.3-0.1,0.5-0.2,0.6c-0.2,0.2-0.4,0.2-0.7,0.2s-0.5-0.1-0.7-0.2
			c-0.2-0.2-0.2-0.4-0.2-0.6v-0.7c-0.3,0.5-0.6,0.9-1.2,1.2s-1.1,0.4-1.7,0.4c-0.8,0-1.4-0.2-2-0.6c-0.6-0.4-1.1-0.9-1.4-1.6
			c-0.3-0.7-0.5-1.5-0.5-2.4c0-0.9,0.2-1.7,0.5-2.4c0.3-0.7,0.8-1.2,1.4-1.6c0.6-0.4,1.3-0.6,2-0.6c0.7,0,1.2,0.1,1.7,0.4
			c0.5,0.3,0.9,0.7,1.1,1.2V132c0-0.3,0.1-0.5,0.2-0.6c0.2-0.2,0.4-0.2,0.7-0.2C474.9,131.2,475.1,131.2,475.3,131.4z M473.1,141.8
			c0.4-0.5,0.6-1.3,0.6-2.3s-0.2-1.8-0.6-2.3s-1-0.8-1.8-0.8s-1.4,0.3-1.8,0.8c-0.4,0.5-0.7,1.3-0.7,2.3s0.2,1.8,0.7,2.3
			c0.4,0.6,1.1,0.8,1.8,0.8S472.7,142.4,473.1,141.8z"/>
		<path class="st1" d="M485.4,141.9c0.1,0.1,0.2,0.3,0.2,0.5c0,0.3-0.2,0.6-0.6,0.9c-0.4,0.2-0.9,0.4-1.4,0.6s-1,0.2-1.4,0.2
			c-1.4,0-2.5-0.4-3.3-1.2c-0.8-0.8-1.2-1.9-1.2-3.3c0-0.9,0.2-1.7,0.5-2.4c0.4-0.7,0.9-1.2,1.5-1.6c0.6-0.4,1.4-0.6,2.2-0.6
			c1.2,0,2.1,0.4,2.8,1.1c0.7,0.8,1,1.8,1,3.1c0,0.5-0.2,0.7-0.6,0.7h-5.6c0.1,1.9,1,2.8,2.7,2.8c0.4,0,0.8-0.1,1.2-0.2
			s0.7-0.3,1-0.5c0,0,0.1-0.1,0.3-0.2c0.2-0.1,0.3-0.1,0.4-0.1C485.1,141.7,485.3,141.8,485.4,141.9z M480.1,136.9
			c-0.4,0.4-0.7,1.1-0.8,1.9h4.6c0-0.8-0.2-1.4-0.6-1.9c-0.4-0.4-0.9-0.7-1.6-0.7C481.1,136.3,480.6,136.5,480.1,136.9z
			 M481.8,134.1c-0.1,0-0.2,0-0.4-0.1c-0.1-0.1-0.2-0.2-0.2-0.3c0-0.1,0-0.2,0.1-0.3l1.9-2.5c0.2-0.3,0.5-0.5,0.8-0.5
			c0.2,0,0.4,0.1,0.6,0.2c0.2,0.2,0.2,0.3,0.2,0.6c0,0.3-0.1,0.5-0.4,0.8l-2.4,2.1C482.1,134.1,481.9,134.1,481.8,134.1z"/>
		<path class="st1" d="M489.1,143.5c-0.7-0.4-1.2-0.9-1.5-1.6c-0.4-0.7-0.5-1.5-0.5-2.4c0-0.9,0.2-1.7,0.5-2.4
			c0.4-0.7,0.9-1.2,1.5-1.6c0.7-0.4,1.4-0.6,2.3-0.6s1.6,0.2,2.3,0.6c0.7,0.4,1.2,0.9,1.5,1.6c0.4,0.7,0.5,1.5,0.5,2.4
			c0,0.9-0.2,1.7-0.5,2.4c-0.4,0.7-0.9,1.2-1.5,1.6c-0.7,0.4-1.4,0.6-2.3,0.6S489.8,143.9,489.1,143.5z M493.3,141.8
			c0.4-0.5,0.6-1.3,0.6-2.3c0-1-0.2-1.8-0.6-2.3c-0.4-0.5-1-0.8-1.8-0.8s-1.4,0.3-1.8,0.8c-0.4,0.5-0.6,1.3-0.6,2.3
			c0,1,0.2,1.8,0.6,2.3c0.4,0.5,1,0.8,1.8,0.8C492.2,142.6,492.8,142.4,493.3,141.8z"/>
		<path class="st1" d="M497.8,143.3c-0.2-0.1-0.4-0.3-0.5-0.4c-0.1-0.1-0.1-0.3-0.1-0.5c0-0.2,0.1-0.4,0.2-0.5
			c0.1-0.1,0.2-0.2,0.4-0.2c0.2,0,0.4,0.1,0.7,0.3c0.4,0.2,0.7,0.3,1.1,0.5s0.8,0.2,1.3,0.2c0.6,0,1-0.1,1.3-0.3
			c0.3-0.2,0.5-0.5,0.5-0.9c0-0.2-0.1-0.4-0.2-0.6c-0.1-0.1-0.3-0.3-0.7-0.4c-0.3-0.1-0.8-0.2-1.4-0.4c-1.1-0.2-1.8-0.5-2.3-0.9
			s-0.7-0.9-0.7-1.6c0-0.5,0.2-1,0.5-1.4s0.7-0.7,1.2-1c0.5-0.2,1.1-0.3,1.8-0.3c0.5,0,0.9,0.1,1.4,0.2s0.9,0.3,1.2,0.5
			c0.4,0.3,0.6,0.6,0.6,0.9c0,0.2-0.1,0.4-0.2,0.5c-0.1,0.1-0.2,0.2-0.4,0.2c-0.1,0-0.2,0-0.3-0.1c-0.1,0-0.3-0.1-0.4-0.2
			c-0.3-0.2-0.6-0.3-0.9-0.5s-0.6-0.2-1.1-0.2c-0.5,0-0.9,0.1-1.2,0.3c-0.3,0.2-0.5,0.5-0.5,0.9c0,0.3,0.1,0.6,0.4,0.8
			c0.3,0.2,0.8,0.4,1.6,0.5c0.8,0.2,1.4,0.4,1.9,0.6c0.5,0.2,0.8,0.5,1,0.8c0.2,0.3,0.3,0.7,0.3,1.2c0,0.8-0.3,1.4-1,1.9
			c-0.7,0.5-1.5,0.7-2.6,0.7C499.6,144.1,498.6,143.8,497.8,143.3z"/>
	</g>
	<circle class="st0" cx="692.2" cy="187.9" r="93.9"/>
	<g>
		<rect x="598.2" y="166" class="st2" width="187.9" height="43.9"/>
		<path class="st1" d="M660.8,178.6c-0.2-0.2-0.3-0.4-0.3-0.7V167c0-0.3,0.1-0.5,0.2-0.7c0.2-0.2,0.4-0.2,0.7-0.2h4.3
			c1.3,0,2.4,0.3,3.1,1c0.7,0.7,1.1,1.6,1.1,2.8c0,1.2-0.4,2.1-1.1,2.8s-1.8,1-3.1,1h-3.4v4.2c0,0.3-0.1,0.5-0.2,0.7
			s-0.4,0.3-0.7,0.3C661.2,178.9,661,178.8,660.8,178.6z M668.3,169.9c0-1.5-0.9-2.3-2.7-2.3h-3.2v4.6h3.2
			C667.4,172.2,668.3,171.4,668.3,169.9z"/>
		<path class="st1" d="M679,176.8c0.1,0.1,0.2,0.3,0.2,0.5c0,0.3-0.2,0.6-0.6,0.9c-0.4,0.2-0.9,0.4-1.4,0.6c-0.5,0.1-1,0.2-1.4,0.2
			c-1.4,0-2.5-0.4-3.3-1.2c-0.8-0.8-1.2-1.9-1.2-3.3c0-0.9,0.2-1.7,0.5-2.4s0.9-1.2,1.5-1.6c0.6-0.4,1.4-0.6,2.2-0.6
			c1.2,0,2.1,0.4,2.8,1.1c0.7,0.8,1,1.8,1,3.1c0,0.5-0.2,0.7-0.6,0.7h-5.6c0.1,1.9,1,2.8,2.7,2.8c0.4,0,0.8-0.1,1.2-0.2
			s0.7-0.3,1-0.5c0,0,0.1-0.1,0.3-0.2s0.3-0.1,0.4-0.1C678.8,176.6,678.9,176.6,679,176.8z M673.8,171.8c-0.4,0.4-0.7,1.1-0.8,1.9
			h4.6c0-0.8-0.2-1.4-0.6-1.9c-0.4-0.4-0.9-0.7-1.6-0.7C674.8,171.1,674.2,171.3,673.8,171.8z"/>
		<path class="st1" d="M686.7,170.5c0,0.3-0.1,0.5-0.2,0.6c-0.1,0.1-0.4,0.2-0.7,0.2l-0.5,0.1c-0.8,0.1-1.3,0.3-1.7,0.8
			c-0.4,0.5-0.5,1-0.5,1.7v4.1c0,0.3-0.1,0.5-0.3,0.6c-0.2,0.1-0.4,0.2-0.6,0.2s-0.5-0.1-0.7-0.2s-0.3-0.4-0.3-0.6v-7.3
			c0-0.3,0.1-0.5,0.3-0.6c0.2-0.1,0.4-0.2,0.7-0.2c0.2,0,0.4,0.1,0.6,0.2c0.2,0.2,0.2,0.4,0.2,0.6v0.9c0.2-0.5,0.6-0.9,1-1.2
			s1-0.4,1.5-0.5l0.3,0C686.5,169.8,686.7,170,686.7,170.5z"/>
		<path class="st1" d="M687.8,178.1c-0.2-0.1-0.4-0.3-0.5-0.4c-0.1-0.1-0.1-0.3-0.1-0.5c0-0.2,0.1-0.4,0.2-0.5s0.2-0.2,0.4-0.2
			c0.2,0,0.4,0.1,0.7,0.3c0.4,0.2,0.7,0.3,1.1,0.5s0.8,0.2,1.3,0.2c0.6,0,1-0.1,1.3-0.3s0.5-0.5,0.5-0.9c0-0.2-0.1-0.4-0.2-0.6
			c-0.1-0.1-0.3-0.3-0.7-0.4c-0.3-0.1-0.8-0.2-1.4-0.4c-1.1-0.2-1.8-0.5-2.3-0.9c-0.5-0.4-0.7-0.9-0.7-1.6c0-0.5,0.1-1,0.5-1.4
			c0.3-0.4,0.7-0.7,1.2-1c0.5-0.2,1.1-0.3,1.8-0.3c0.5,0,0.9,0.1,1.4,0.2s0.9,0.3,1.2,0.5c0.4,0.3,0.6,0.6,0.6,0.9
			c0,0.2-0.1,0.4-0.2,0.5c-0.1,0.1-0.2,0.2-0.4,0.2c-0.1,0-0.2,0-0.3-0.1c-0.1,0-0.3-0.1-0.4-0.2c-0.3-0.2-0.6-0.3-0.9-0.5
			c-0.3-0.1-0.6-0.2-1.1-0.2c-0.5,0-0.9,0.1-1.2,0.3c-0.3,0.2-0.5,0.5-0.5,0.9c0,0.3,0.1,0.6,0.4,0.8c0.3,0.2,0.8,0.4,1.6,0.5
			c0.8,0.2,1.4,0.4,1.9,0.6c0.5,0.2,0.8,0.5,1,0.8c0.2,0.3,0.3,0.7,0.3,1.2c0,0.8-0.3,1.4-1,1.9c-0.7,0.5-1.5,0.7-2.6,0.7
			C689.6,178.9,688.6,178.6,687.8,178.1z"/>
		<path class="st1" d="M698,178.3c-0.7-0.4-1.2-0.9-1.5-1.6c-0.4-0.7-0.5-1.5-0.5-2.4c0-0.9,0.2-1.7,0.5-2.4
			c0.4-0.7,0.9-1.2,1.5-1.6c0.7-0.4,1.4-0.6,2.3-0.6c0.9,0,1.6,0.2,2.3,0.6c0.7,0.4,1.2,0.9,1.5,1.6c0.4,0.7,0.5,1.5,0.5,2.4
			c0,0.9-0.2,1.7-0.5,2.4c-0.4,0.7-0.9,1.2-1.5,1.6s-1.4,0.6-2.3,0.6C699.4,178.9,698.6,178.7,698,178.3z M702.1,176.7
			c0.4-0.5,0.6-1.3,0.6-2.3c0-1-0.2-1.8-0.6-2.3c-0.4-0.5-1-0.8-1.8-0.8s-1.4,0.3-1.8,0.8c-0.4,0.5-0.6,1.3-0.6,2.3
			c0,1,0.2,1.8,0.6,2.3c0.4,0.5,1,0.8,1.8,0.8C701.1,177.5,701.7,177.2,702.1,176.7z"/>
		<path class="st1" d="M714.5,173.3v4.7c0,0.3-0.1,0.5-0.2,0.6c-0.2,0.1-0.4,0.2-0.7,0.2c-0.3,0-0.5-0.1-0.7-0.2
			c-0.2-0.2-0.2-0.4-0.2-0.6v-4.6c0-0.7-0.1-1.3-0.4-1.6s-0.8-0.5-1.4-0.5c-0.7,0-1.3,0.2-1.8,0.7s-0.7,1.1-0.7,1.8v4.2
			c0,0.3-0.1,0.5-0.2,0.6c-0.2,0.2-0.4,0.2-0.7,0.2c-0.3,0-0.5-0.1-0.7-0.2c-0.2-0.2-0.3-0.4-0.3-0.6v-7.3c0-0.3,0.1-0.5,0.3-0.6
			c0.2-0.2,0.4-0.2,0.7-0.2c0.3,0,0.5,0.1,0.6,0.2c0.2,0.2,0.2,0.4,0.2,0.6v0.7c0.3-0.5,0.7-0.9,1.2-1.2s1.1-0.4,1.7-0.4
			C713.4,169.8,714.5,171,714.5,173.3z"/>
		<path class="st1" d="M723.3,170.7c0.6,0.6,0.9,1.5,0.9,2.7v4.7c0,0.3-0.1,0.5-0.2,0.6c-0.2,0.1-0.4,0.2-0.6,0.2
			c-0.3,0-0.5-0.1-0.6-0.2c-0.2-0.2-0.2-0.4-0.2-0.6v-0.7c-0.2,0.5-0.6,0.9-1,1.2c-0.5,0.3-1,0.4-1.6,0.4c-0.6,0-1.1-0.1-1.6-0.4
			c-0.5-0.2-0.8-0.6-1.1-1c-0.3-0.4-0.4-0.9-0.4-1.4c0-0.6,0.1-1.2,0.5-1.5s0.9-0.6,1.6-0.8c0.8-0.2,1.8-0.2,3.1-0.2h0.4v-0.5
			c0-0.7-0.1-1.2-0.4-1.5c-0.3-0.3-0.7-0.4-1.3-0.4c-0.4,0-0.8,0.1-1.2,0.2c-0.4,0.1-0.8,0.3-1.2,0.5c-0.3,0.2-0.6,0.3-0.7,0.3
			c-0.2,0-0.3-0.1-0.4-0.2c-0.1-0.1-0.2-0.3-0.2-0.5c0-0.2,0.1-0.3,0.2-0.5c0.1-0.1,0.3-0.3,0.5-0.4c0.4-0.2,0.9-0.4,1.5-0.5
			c0.6-0.1,1.1-0.2,1.6-0.2C721.8,169.8,722.7,170.1,723.3,170.7z M721.7,176.9c0.4-0.4,0.6-1,0.6-1.7v-0.5H722
			c-0.9,0-1.7,0-2.2,0.1c-0.5,0.1-0.9,0.2-1.1,0.4c-0.2,0.2-0.3,0.5-0.3,0.9c0,0.4,0.2,0.8,0.5,1.1c0.3,0.3,0.7,0.4,1.2,0.4
			C720.8,177.5,721.3,177.3,721.7,176.9z"/>
		<path class="st1" d="M615.3,200.2c-0.2-0.2-0.3-0.4-0.3-0.7v-10.9c0-0.3,0.1-0.5,0.2-0.7s0.4-0.2,0.7-0.2h4.3c1.3,0,2.4,0.3,3.1,1
			c0.7,0.7,1.1,1.6,1.1,2.8c0,1.2-0.4,2.1-1.1,2.8s-1.8,1-3.1,1h-3.4v4.2c0,0.3-0.1,0.5-0.2,0.7s-0.4,0.3-0.7,0.3
			C615.7,200.5,615.5,200.4,615.3,200.2z M622.8,191.5c0-1.5-0.9-2.3-2.7-2.3h-3.2v4.6h3.2C621.9,193.8,622.8,193,622.8,191.5z"/>
		<path class="st1" d="M632.6,192.3c0.6,0.6,0.9,1.5,0.9,2.7v4.7c0,0.3-0.1,0.5-0.2,0.6c-0.2,0.1-0.4,0.2-0.6,0.2
			c-0.3,0-0.5-0.1-0.6-0.2c-0.2-0.2-0.2-0.4-0.2-0.6v-0.7c-0.2,0.5-0.6,0.9-1,1.2c-0.5,0.3-1,0.4-1.6,0.4c-0.6,0-1.1-0.1-1.6-0.4
			c-0.5-0.2-0.8-0.6-1.1-1c-0.3-0.4-0.4-0.9-0.4-1.4c0-0.6,0.2-1.2,0.5-1.5s0.9-0.6,1.6-0.8s1.8-0.2,3.2-0.2h0.4v-0.5
			c0-0.7-0.1-1.2-0.4-1.5c-0.3-0.3-0.7-0.4-1.3-0.4c-0.4,0-0.8,0.1-1.2,0.2c-0.4,0.1-0.8,0.3-1.2,0.5c-0.3,0.2-0.6,0.3-0.7,0.3
			c-0.2,0-0.3-0.1-0.4-0.2c-0.1-0.1-0.2-0.3-0.2-0.5c0-0.2,0.1-0.3,0.2-0.5c0.1-0.1,0.3-0.3,0.5-0.4c0.4-0.2,0.9-0.4,1.5-0.5
			c0.6-0.1,1.1-0.2,1.6-0.2C631.2,191.4,632.1,191.7,632.6,192.3z M631.1,198.5c0.4-0.4,0.6-1,0.6-1.7v-0.5h-0.3
			c-0.9,0-1.7,0-2.2,0.1s-0.9,0.2-1.1,0.4c-0.2,0.2-0.3,0.5-0.3,0.9c0,0.4,0.2,0.8,0.5,1.1c0.3,0.3,0.7,0.4,1.2,0.4
			C630.1,199.1,630.7,198.9,631.1,198.5z"/>
		<path class="st1" d="M641.5,192.1c0,0.3-0.1,0.5-0.2,0.6s-0.4,0.2-0.7,0.2L640,193c-0.8,0.1-1.3,0.3-1.7,0.8s-0.5,1-0.5,1.7v4.1
			c0,0.3-0.1,0.5-0.3,0.6s-0.4,0.2-0.6,0.2c-0.3,0-0.5-0.1-0.7-0.2c-0.2-0.1-0.3-0.4-0.3-0.6v-7.3c0-0.3,0.1-0.5,0.3-0.6
			c0.2-0.1,0.4-0.2,0.7-0.2c0.2,0,0.4,0.1,0.6,0.2c0.2,0.2,0.2,0.4,0.2,0.6v0.9c0.2-0.5,0.6-0.9,1-1.2s1-0.4,1.5-0.5l0.3,0
			C641.2,191.4,641.5,191.6,641.5,192.1z"/>
		<path class="st1" d="M643.9,199.9c-0.6-0.4-1.1-0.9-1.5-1.6c-0.4-0.7-0.5-1.5-0.5-2.4c0-0.9,0.2-1.7,0.5-2.4s0.9-1.2,1.5-1.6
			s1.4-0.6,2.3-0.6c0.5,0,0.9,0.1,1.4,0.2s0.9,0.3,1.2,0.5c0.4,0.3,0.6,0.6,0.6,0.9c0,0.2-0.1,0.4-0.2,0.5s-0.2,0.2-0.4,0.2
			c-0.1,0-0.2,0-0.3-0.1c-0.1-0.1-0.2-0.1-0.4-0.2c-0.3-0.2-0.6-0.3-0.8-0.4c-0.3-0.1-0.6-0.2-0.9-0.2c-0.8,0-1.4,0.3-1.9,0.8
			c-0.4,0.6-0.7,1.3-0.7,2.3c0,1,0.2,1.7,0.7,2.3s1.1,0.8,1.9,0.8c0.4,0,0.7-0.1,1-0.2c0.3-0.1,0.6-0.3,0.8-0.4
			c0.1-0.1,0.3-0.2,0.4-0.2c0.1-0.1,0.3-0.1,0.4-0.1c0.2,0,0.3,0.1,0.4,0.2c0.1,0.1,0.2,0.3,0.2,0.5c0,0.2,0,0.3-0.1,0.5
			c-0.1,0.1-0.2,0.3-0.5,0.4c-0.4,0.2-0.8,0.4-1.3,0.6c-0.5,0.1-1,0.2-1.5,0.2C645.3,200.5,644.6,200.3,643.9,199.9z"/>
		<path class="st1" d="M652.6,199.9c-0.7-0.4-1.2-0.9-1.5-1.6c-0.4-0.7-0.5-1.5-0.5-2.4c0-0.9,0.2-1.7,0.5-2.4
			c0.4-0.7,0.9-1.2,1.5-1.6c0.7-0.4,1.4-0.6,2.3-0.6s1.6,0.2,2.3,0.6c0.7,0.4,1.2,0.9,1.5,1.6c0.4,0.7,0.5,1.5,0.5,2.4
			c0,0.9-0.2,1.7-0.5,2.4c-0.4,0.7-0.9,1.2-1.5,1.6c-0.7,0.4-1.4,0.6-2.3,0.6S653.3,200.3,652.6,199.9z M656.7,198.3
			c0.4-0.5,0.6-1.3,0.6-2.3c0-1-0.2-1.8-0.6-2.3c-0.4-0.5-1-0.8-1.8-0.8s-1.4,0.3-1.8,0.8c-0.4,0.5-0.6,1.3-0.6,2.3
			c0,1,0.2,1.8,0.6,2.3c0.4,0.5,1,0.8,1.8,0.8S656.3,198.8,656.7,198.3z"/>
		<path class="st1" d="M668.7,191.6c0.2,0.2,0.2,0.4,0.2,0.6v7.3c0,0.3-0.1,0.5-0.3,0.6c-0.2,0.2-0.4,0.2-0.7,0.2
			c-0.3,0-0.5-0.1-0.6-0.2c-0.2-0.2-0.2-0.4-0.2-0.6v-0.7c-0.3,0.5-0.7,0.9-1.1,1.2c-0.5,0.3-1,0.4-1.6,0.4c-2.1,0-3.2-1.2-3.2-3.5
			v-4.7c0-0.3,0.1-0.5,0.2-0.6c0.2-0.2,0.4-0.2,0.7-0.2c0.3,0,0.5,0.1,0.7,0.2c0.2,0.2,0.2,0.4,0.2,0.6v4.7c0,0.7,0.1,1.2,0.4,1.6
			s0.7,0.5,1.3,0.5c0.7,0,1.3-0.2,1.7-0.7s0.6-1.1,0.6-1.8v-4.2c0-0.3,0.1-0.5,0.3-0.6s0.4-0.2,0.7-0.2S668.5,191.5,668.7,191.6z"/>
		<path class="st1" d="M677,192.1c0,0.3-0.1,0.5-0.2,0.6s-0.4,0.2-0.7,0.2l-0.5,0.1c-0.8,0.1-1.3,0.3-1.7,0.8s-0.5,1-0.5,1.7v4.1
			c0,0.3-0.1,0.5-0.3,0.6s-0.4,0.2-0.6,0.2c-0.3,0-0.5-0.1-0.7-0.2c-0.2-0.1-0.3-0.4-0.3-0.6v-7.3c0-0.3,0.1-0.5,0.3-0.6
			c0.2-0.1,0.4-0.2,0.7-0.2c0.2,0,0.4,0.1,0.6,0.2c0.2,0.2,0.2,0.4,0.2,0.6v0.9c0.2-0.5,0.6-0.9,1-1.2s1-0.4,1.5-0.5l0.3,0
			C676.7,191.4,677,191.6,677,192.1z"/>
		<path class="st1" d="M678,199.7c-0.2-0.1-0.4-0.3-0.5-0.4c-0.1-0.1-0.1-0.3-0.1-0.5c0-0.2,0.1-0.4,0.2-0.5s0.2-0.2,0.4-0.2
			c0.2,0,0.4,0.1,0.7,0.3c0.4,0.2,0.7,0.3,1.1,0.5s0.8,0.2,1.3,0.2c0.6,0,1-0.1,1.3-0.3s0.5-0.5,0.5-0.9c0-0.2-0.1-0.4-0.2-0.6
			c-0.1-0.1-0.3-0.3-0.7-0.4c-0.3-0.1-0.8-0.2-1.4-0.4c-1.1-0.2-1.8-0.5-2.3-0.9c-0.5-0.4-0.7-0.9-0.7-1.6c0-0.5,0.1-1,0.5-1.4
			c0.3-0.4,0.7-0.7,1.2-1c0.5-0.2,1.1-0.3,1.8-0.3c0.5,0,0.9,0.1,1.4,0.2s0.9,0.3,1.2,0.5c0.4,0.3,0.6,0.6,0.6,0.9
			c0,0.2-0.1,0.4-0.2,0.5c-0.1,0.1-0.2,0.2-0.4,0.2c-0.1,0-0.2,0-0.3-0.1c-0.1,0-0.3-0.1-0.4-0.2c-0.3-0.2-0.6-0.3-0.9-0.5
			c-0.3-0.1-0.6-0.2-1.1-0.2c-0.5,0-0.9,0.1-1.2,0.3c-0.3,0.2-0.5,0.5-0.5,0.9c0,0.3,0.1,0.6,0.4,0.8c0.3,0.2,0.8,0.4,1.6,0.5
			c0.8,0.2,1.4,0.4,1.9,0.6c0.5,0.2,0.8,0.5,1,0.8c0.2,0.3,0.3,0.7,0.3,1.2c0,0.8-0.3,1.4-1,1.9c-0.7,0.5-1.5,0.7-2.6,0.7
			C679.8,200.5,678.8,200.2,678,199.7z"/>
		<path class="st1" d="M698.9,191.6c0.2,0.2,0.2,0.4,0.2,0.6v7.3c0,0.3-0.1,0.5-0.3,0.6c-0.2,0.2-0.4,0.2-0.7,0.2
			c-0.3,0-0.5-0.1-0.6-0.2c-0.2-0.2-0.2-0.4-0.2-0.6v-0.7c-0.3,0.5-0.7,0.9-1.1,1.2c-0.5,0.3-1,0.4-1.6,0.4c-2.1,0-3.2-1.2-3.2-3.5
			v-4.7c0-0.3,0.1-0.5,0.2-0.6c0.2-0.2,0.4-0.2,0.7-0.2c0.3,0,0.5,0.1,0.7,0.2c0.2,0.2,0.2,0.4,0.2,0.6v4.7c0,0.7,0.1,1.2,0.4,1.6
			s0.7,0.5,1.3,0.5c0.7,0,1.3-0.2,1.7-0.7s0.6-1.1,0.6-1.8v-4.2c0-0.3,0.1-0.5,0.3-0.6s0.4-0.2,0.7-0.2S698.7,191.5,698.9,191.6z"/>
		<path class="st1" d="M706.5,199.3c0.1,0.1,0.2,0.3,0.2,0.5c0,0.2-0.1,0.4-0.3,0.5c-0.2,0.1-0.5,0.2-0.8,0.2l-0.5,0
			c-1-0.1-1.7-0.4-2.2-0.9c-0.5-0.5-0.7-1.3-0.7-2.3V193h-1.1c-0.5,0-0.8-0.2-0.8-0.7c0-0.2,0.1-0.4,0.2-0.5
			c0.1-0.1,0.3-0.2,0.6-0.2h1.1v-1.9c0-0.3,0.1-0.5,0.2-0.6c0.2-0.2,0.4-0.2,0.7-0.2s0.5,0.1,0.7,0.2c0.2,0.2,0.3,0.4,0.3,0.6v1.9
			h1.8c0.3,0,0.4,0.1,0.6,0.2c0.1,0.1,0.2,0.3,0.2,0.5c0,0.2-0.1,0.4-0.2,0.5c-0.1,0.1-0.3,0.2-0.6,0.2H704v4.4c0,0.6,0.1,1,0.4,1.2
			c0.2,0.3,0.6,0.4,1.1,0.5l0.5,0C706.2,199.1,706.4,199.2,706.5,199.3z"/>
		<path class="st1" d="M708.1,189.4c-0.2-0.2-0.3-0.4-0.3-0.8c0-0.3,0.1-0.6,0.3-0.7c0.2-0.2,0.5-0.3,0.8-0.3c0.3,0,0.6,0.1,0.8,0.3
			c0.2,0.2,0.3,0.4,0.3,0.7c0,0.3-0.1,0.6-0.3,0.8c-0.2,0.2-0.5,0.3-0.8,0.3C708.6,189.6,708.3,189.5,708.1,189.4z M708.3,200.2
			c-0.2-0.1-0.3-0.4-0.3-0.6v-7.3c0-0.3,0.1-0.5,0.3-0.7c0.2-0.1,0.4-0.2,0.7-0.2s0.5,0.1,0.6,0.2c0.2,0.2,0.3,0.4,0.3,0.7v7.3
			c0,0.3-0.1,0.5-0.3,0.6c-0.2,0.1-0.4,0.2-0.6,0.2S708.4,200.4,708.3,200.2z"/>
		<path class="st1" d="M712.6,200.2c-0.2-0.1-0.3-0.4-0.3-0.6v-11.1c0-0.3,0.1-0.5,0.3-0.7c0.2-0.2,0.4-0.2,0.7-0.2s0.5,0.1,0.6,0.2
			c0.2,0.1,0.3,0.4,0.3,0.7v11.1c0,0.3-0.1,0.5-0.3,0.6c-0.2,0.1-0.4,0.2-0.6,0.2S712.8,200.4,712.6,200.2z"/>
		<path class="st1" d="M716.8,189.4c-0.2-0.2-0.3-0.4-0.3-0.8c0-0.3,0.1-0.6,0.3-0.7c0.2-0.2,0.5-0.3,0.8-0.3c0.3,0,0.6,0.1,0.8,0.3
			c0.2,0.2,0.3,0.4,0.3,0.7c0,0.3-0.1,0.6-0.3,0.8c-0.2,0.2-0.5,0.3-0.8,0.3C717.3,189.6,717,189.5,716.8,189.4z M717,200.2
			c-0.2-0.1-0.3-0.4-0.3-0.6v-7.3c0-0.3,0.1-0.5,0.3-0.7c0.2-0.1,0.4-0.2,0.7-0.2s0.5,0.1,0.6,0.2c0.2,0.2,0.3,0.4,0.3,0.7v7.3
			c0,0.3-0.1,0.5-0.3,0.6c-0.2,0.1-0.4,0.2-0.6,0.2S717.2,200.4,717,200.2z"/>
		<path class="st1" d="M721.1,199.7c-0.2-0.1-0.4-0.3-0.5-0.4c-0.1-0.1-0.1-0.3-0.1-0.5c0-0.2,0.1-0.4,0.2-0.5s0.2-0.2,0.4-0.2
			c0.2,0,0.4,0.1,0.7,0.3c0.4,0.2,0.7,0.3,1.1,0.5s0.8,0.2,1.3,0.2c0.6,0,1-0.1,1.3-0.3s0.5-0.5,0.5-0.9c0-0.2-0.1-0.4-0.2-0.6
			c-0.1-0.1-0.3-0.3-0.7-0.4c-0.3-0.1-0.8-0.2-1.4-0.4c-1.1-0.2-1.8-0.5-2.3-0.9c-0.5-0.4-0.7-0.9-0.7-1.6c0-0.5,0.1-1,0.5-1.4
			c0.3-0.4,0.7-0.7,1.2-1c0.5-0.2,1.1-0.3,1.8-0.3c0.5,0,0.9,0.1,1.4,0.2s0.9,0.3,1.2,0.5c0.4,0.3,0.6,0.6,0.6,0.9
			c0,0.2-0.1,0.4-0.2,0.5c-0.1,0.1-0.2,0.2-0.4,0.2c-0.1,0-0.2,0-0.3-0.1c-0.1,0-0.3-0.1-0.4-0.2c-0.3-0.2-0.6-0.3-0.9-0.5
			c-0.3-0.1-0.6-0.2-1.1-0.2c-0.5,0-0.9,0.1-1.2,0.3c-0.3,0.2-0.5,0.5-0.5,0.9c0,0.3,0.1,0.6,0.4,0.8c0.3,0.2,0.8,0.4,1.6,0.5
			c0.8,0.2,1.4,0.4,1.9,0.6c0.5,0.2,0.8,0.5,1,0.8c0.2,0.3,0.3,0.7,0.3,1.2c0,0.8-0.3,1.4-1,1.9c-0.7,0.5-1.5,0.7-2.6,0.7
			C722.9,200.5,721.9,200.2,721.1,199.7z"/>
		<path class="st1" d="M736,192.3c0.6,0.6,0.9,1.5,0.9,2.7v4.7c0,0.3-0.1,0.5-0.2,0.6c-0.2,0.1-0.4,0.2-0.6,0.2
			c-0.3,0-0.5-0.1-0.6-0.2c-0.2-0.2-0.2-0.4-0.2-0.6v-0.7c-0.2,0.5-0.6,0.9-1,1.2c-0.5,0.3-1,0.4-1.6,0.4c-0.6,0-1.1-0.1-1.6-0.4
			c-0.5-0.2-0.8-0.6-1.1-1c-0.3-0.4-0.4-0.9-0.4-1.4c0-0.6,0.1-1.2,0.5-1.5s0.9-0.6,1.6-0.8c0.8-0.2,1.8-0.2,3.1-0.2h0.4v-0.5
			c0-0.7-0.1-1.2-0.4-1.5c-0.3-0.3-0.7-0.4-1.3-0.4c-0.4,0-0.8,0.1-1.2,0.2c-0.4,0.1-0.8,0.3-1.2,0.5c-0.3,0.2-0.6,0.3-0.7,0.3
			c-0.2,0-0.3-0.1-0.4-0.2c-0.1-0.1-0.2-0.3-0.2-0.5c0-0.2,0.1-0.3,0.2-0.5c0.1-0.1,0.3-0.3,0.5-0.4c0.4-0.2,0.9-0.4,1.5-0.5
			c0.6-0.1,1.1-0.2,1.6-0.2C734.6,191.4,735.5,191.7,736,192.3z M734.5,198.5c0.4-0.4,0.6-1,0.6-1.7v-0.5h-0.3c-0.9,0-1.7,0-2.2,0.1
			c-0.5,0.1-0.9,0.2-1.1,0.4c-0.2,0.2-0.3,0.5-0.3,0.9c0,0.4,0.2,0.8,0.5,1.1c0.3,0.3,0.7,0.4,1.2,0.4
			C733.5,199.1,734.1,198.9,734.5,198.5z"/>
		<path class="st1" d="M744.2,199.3c0.1,0.1,0.2,0.3,0.2,0.5c0,0.2-0.1,0.4-0.3,0.5c-0.2,0.1-0.5,0.2-0.8,0.2l-0.5,0
			c-1-0.1-1.7-0.4-2.2-0.9c-0.5-0.5-0.7-1.3-0.7-2.3V193h-1.1c-0.5,0-0.8-0.2-0.8-0.7c0-0.2,0.1-0.4,0.2-0.5
			c0.1-0.1,0.3-0.2,0.6-0.2h1.1v-1.9c0-0.3,0.1-0.5,0.2-0.6c0.2-0.2,0.4-0.2,0.7-0.2s0.5,0.1,0.7,0.2c0.2,0.2,0.3,0.4,0.3,0.6v1.9
			h1.8c0.3,0,0.4,0.1,0.6,0.2c0.1,0.1,0.2,0.3,0.2,0.5c0,0.2-0.1,0.4-0.2,0.5c-0.1,0.1-0.3,0.2-0.6,0.2h-1.8v4.4
			c0,0.6,0.1,1,0.4,1.2c0.2,0.3,0.6,0.4,1.1,0.5l0.5,0C743.9,199.1,744.1,199.2,744.2,199.3z"/>
		<path class="st1" d="M753,198.4c0.1,0.1,0.2,0.3,0.2,0.5c0,0.3-0.2,0.6-0.6,0.9c-0.4,0.2-0.9,0.4-1.4,0.6s-1,0.2-1.4,0.2
			c-1.4,0-2.5-0.4-3.3-1.2c-0.8-0.8-1.2-1.9-1.2-3.3c0-0.9,0.2-1.7,0.5-2.4c0.4-0.7,0.9-1.2,1.5-1.6c0.6-0.4,1.4-0.6,2.2-0.6
			c1.2,0,2.1,0.4,2.8,1.1s1,1.8,1,3.1c0,0.5-0.2,0.7-0.6,0.7H747c0.1,1.9,1,2.8,2.7,2.8c0.4,0,0.8-0.1,1.2-0.2
			c0.3-0.1,0.7-0.3,1-0.5c0,0,0.1-0.1,0.3-0.2s0.3-0.1,0.4-0.1C752.8,198.2,752.9,198.2,753,198.4z M747.8,193.4
			c-0.4,0.4-0.7,1.1-0.8,1.9h4.6c0-0.8-0.2-1.4-0.6-1.9c-0.4-0.4-0.9-0.7-1.6-0.7C748.8,192.7,748.2,192.9,747.8,193.4z"/>
		<path class="st1" d="M762.7,191.6c0.2,0.2,0.2,0.4,0.2,0.6v7.3c0,0.3-0.1,0.5-0.3,0.6c-0.2,0.2-0.4,0.2-0.7,0.2
			c-0.3,0-0.5-0.1-0.6-0.2c-0.2-0.2-0.2-0.4-0.2-0.6v-0.7c-0.3,0.5-0.7,0.9-1.1,1.2c-0.5,0.3-1,0.4-1.6,0.4c-2.1,0-3.2-1.2-3.2-3.5
			v-4.7c0-0.3,0.1-0.5,0.2-0.6c0.2-0.2,0.4-0.2,0.7-0.2c0.3,0,0.5,0.1,0.7,0.2c0.2,0.2,0.2,0.4,0.2,0.6v4.7c0,0.7,0.1,1.2,0.4,1.6
			s0.7,0.5,1.3,0.5c0.7,0,1.3-0.2,1.7-0.7s0.6-1.1,0.6-1.8v-4.2c0-0.3,0.1-0.5,0.3-0.6s0.4-0.2,0.7-0.2S762.6,191.5,762.7,191.6z"/>
		<path class="st1" d="M771,192.1c0,0.3-0.1,0.5-0.2,0.6c-0.1,0.1-0.4,0.2-0.7,0.2l-0.5,0.1c-0.8,0.1-1.3,0.3-1.7,0.8
			c-0.4,0.5-0.5,1-0.5,1.7v4.1c0,0.3-0.1,0.5-0.3,0.6c-0.2,0.1-0.4,0.2-0.6,0.2s-0.5-0.1-0.7-0.2s-0.3-0.4-0.3-0.6v-7.3
			c0-0.3,0.1-0.5,0.3-0.6c0.2-0.1,0.4-0.2,0.7-0.2c0.2,0,0.4,0.1,0.6,0.2c0.2,0.2,0.2,0.4,0.2,0.6v0.9c0.2-0.5,0.6-0.9,1-1.2
			s1-0.4,1.5-0.5l0.3,0C770.7,191.4,771,191.6,771,192.1z"/>
	</g>
	<circle class="st0" cx="755.3" cy="109.9" r="59.3"/>
	<g>
		<rect x="697.4" y="102.2" class="st2" width="115.9" height="15.5"/>
		<path class="st1" d="M724.8,102.3c0.2-0.1,0.4-0.2,0.6-0.2c0.3,0,0.5,0.1,0.7,0.3c0.2,0.2,0.3,0.4,0.3,0.7c0,0.2,0,0.3-0.1,0.4
			l-4.6,12.9c-0.1,0.2-0.2,0.4-0.5,0.5c-0.2,0.1-0.4,0.2-0.7,0.2c-0.2,0-0.5-0.1-0.7-0.2c-0.2-0.1-0.4-0.3-0.4-0.5l-3.8-10.8
			l-3.9,10.8c-0.1,0.2-0.2,0.4-0.4,0.5c-0.2,0.1-0.4,0.2-0.7,0.2c-0.2,0-0.5-0.1-0.7-0.2c-0.2-0.1-0.4-0.3-0.4-0.5l-4.6-12.9
			c-0.1-0.1-0.1-0.3-0.1-0.4c0-0.3,0.1-0.5,0.3-0.7c0.2-0.2,0.5-0.3,0.8-0.3c0.2,0,0.4,0.1,0.6,0.2s0.3,0.3,0.4,0.5l3.9,11.1l3.9-11
			c0.1-0.2,0.2-0.4,0.4-0.5c0.2-0.1,0.4-0.2,0.6-0.2c0.2,0,0.4,0.1,0.6,0.2c0.2,0.1,0.3,0.3,0.4,0.6l3.8,11.1l3.9-11.2
			C724.5,102.6,724.6,102.4,724.8,102.3z"/>
		<path class="st1" d="M729.8,104.2c-0.2-0.2-0.4-0.5-0.4-0.9c0-0.4,0.1-0.7,0.4-0.9c0.2-0.2,0.6-0.3,1-0.3c0.4,0,0.7,0.1,0.9,0.3
			c0.2,0.2,0.4,0.5,0.4,0.9c0,0.4-0.1,0.7-0.4,0.9c-0.2,0.2-0.6,0.3-1,0.3S730,104.5,729.8,104.2z M730,116.9
			c-0.2-0.2-0.3-0.4-0.3-0.8v-8.5c0-0.3,0.1-0.6,0.3-0.8c0.2-0.2,0.5-0.3,0.8-0.3s0.6,0.1,0.8,0.3c0.2,0.2,0.3,0.4,0.3,0.8v8.5
			c0,0.3-0.1,0.6-0.3,0.8c-0.2,0.2-0.4,0.3-0.8,0.3S730.2,117,730,116.9z"/>
		<path class="st1" d="M741,107.5c0,0.3-0.1,0.5-0.2,0.7c-0.2,0.2-0.4,0.2-0.8,0.3l-0.6,0.1c-0.9,0.1-1.5,0.4-2,0.9
			c-0.4,0.5-0.6,1.2-0.6,1.9v4.8c0,0.3-0.1,0.6-0.3,0.8c-0.2,0.2-0.4,0.3-0.8,0.3s-0.6-0.1-0.8-0.3c-0.2-0.2-0.3-0.4-0.3-0.8v-8.5
			c0-0.3,0.1-0.6,0.3-0.7c0.2-0.2,0.5-0.3,0.8-0.3c0.3,0,0.5,0.1,0.7,0.3s0.3,0.4,0.3,0.7v1c0.3-0.6,0.7-1.1,1.2-1.4
			c0.5-0.3,1.1-0.5,1.8-0.6l0.3,0C740.7,106.6,741,106.9,741,107.5z"/>
		<path class="st1" d="M750.6,114.7c0.1,0.2,0.2,0.3,0.2,0.6c0,0.4-0.3,0.7-0.8,1c-0.5,0.3-1,0.5-1.6,0.6c-0.6,0.2-1.1,0.2-1.7,0.2
			c-1.6,0-2.9-0.5-3.8-1.4c-0.9-0.9-1.4-2.2-1.4-3.8c0-1,0.2-2,0.6-2.8c0.4-0.8,1-1.4,1.7-1.9s1.6-0.7,2.5-0.7
			c1.4,0,2.4,0.4,3.2,1.3c0.8,0.9,1.2,2.1,1.2,3.5c0,0.6-0.2,0.8-0.8,0.8h-6.4c0.1,2.2,1.2,3.2,3.1,3.2c0.5,0,1-0.1,1.3-0.2
			c0.4-0.1,0.8-0.3,1.2-0.5c0,0,0.2-0.1,0.3-0.2c0.2-0.1,0.3-0.1,0.5-0.1C750.3,114.4,750.5,114.5,750.6,114.7z M744.5,108.9
			c-0.5,0.5-0.8,1.2-0.9,2.2h5.4c0-0.9-0.3-1.7-0.7-2.2c-0.4-0.5-1.1-0.8-1.8-0.8C745.7,108.1,745,108.4,744.5,108.9z"/>
		<path class="st1" d="M756.4,104.6c-0.3,0.4-0.5,0.9-0.5,1.7v0.6h2.1c0.3,0,0.5,0.1,0.7,0.2c0.2,0.1,0.2,0.3,0.2,0.6
			s-0.1,0.4-0.2,0.6c-0.2,0.1-0.4,0.2-0.7,0.2h-2.1v7.6c0,0.3-0.1,0.6-0.3,0.8c-0.2,0.2-0.5,0.3-0.8,0.3s-0.6-0.1-0.8-0.3
			c-0.2-0.2-0.3-0.4-0.3-0.8v-7.6h-1.3c-0.3,0-0.5-0.1-0.7-0.2c-0.2-0.1-0.2-0.3-0.2-0.6s0.1-0.4,0.2-0.6c0.2-0.1,0.4-0.2,0.7-0.2
			h1.3v-0.3c0-1.3,0.3-2.3,1-3c0.7-0.7,1.6-1.1,2.8-1.2l0.5,0c0.4,0,0.8,0,1,0.1c0.2,0.1,0.3,0.3,0.3,0.6c0,0.5-0.3,0.8-0.9,0.8
			l-0.5,0C757.2,104,756.7,104.2,756.4,104.6z"/>
		<path class="st1" d="M766.6,107.5c0,0.3-0.1,0.5-0.2,0.7c-0.2,0.2-0.4,0.2-0.8,0.3l-0.6,0.1c-0.9,0.1-1.5,0.4-2,0.9
			c-0.4,0.5-0.6,1.2-0.6,1.9v4.8c0,0.3-0.1,0.6-0.3,0.8c-0.2,0.2-0.4,0.3-0.8,0.3s-0.6-0.1-0.8-0.3c-0.2-0.2-0.3-0.4-0.3-0.8v-8.5
			c0-0.3,0.1-0.6,0.3-0.7c0.2-0.2,0.5-0.3,0.8-0.3c0.3,0,0.5,0.1,0.7,0.3s0.3,0.4,0.3,0.7v1c0.3-0.6,0.7-1.1,1.2-1.4
			c0.5-0.3,1.1-0.5,1.8-0.6l0.3,0C766.3,106.6,766.6,106.9,766.6,107.5z"/>
		<path class="st1" d="M775.1,107.6c0.7,0.7,1,1.7,1,3.1v5.4c0,0.3-0.1,0.6-0.3,0.7s-0.4,0.3-0.8,0.3c-0.3,0-0.5-0.1-0.7-0.3
			s-0.3-0.4-0.3-0.7v-0.8c-0.3,0.6-0.7,1-1.2,1.3c-0.5,0.3-1.1,0.5-1.8,0.5c-0.7,0-1.3-0.1-1.8-0.4s-1-0.6-1.3-1.1
			c-0.3-0.5-0.5-1-0.5-1.6c0-0.8,0.2-1.3,0.6-1.8c0.4-0.4,1-0.7,1.9-0.9c0.9-0.2,2.1-0.3,3.7-0.3h0.5v-0.6c0-0.8-0.2-1.3-0.5-1.7
			c-0.3-0.3-0.8-0.5-1.5-0.5c-0.5,0-0.9,0.1-1.4,0.2c-0.4,0.1-0.9,0.3-1.4,0.5c-0.4,0.2-0.6,0.3-0.8,0.3c-0.2,0-0.4-0.1-0.5-0.2
			s-0.2-0.3-0.2-0.6c0-0.2,0.1-0.4,0.2-0.6c0.1-0.2,0.3-0.3,0.6-0.5c0.5-0.3,1.1-0.5,1.7-0.6c0.7-0.2,1.3-0.2,1.9-0.2
			C773.5,106.6,774.5,106.9,775.1,107.6z M773.3,114.8c0.5-0.5,0.7-1.2,0.7-2v-0.5h-0.4c-1.1,0-1.9,0-2.5,0.1
			c-0.6,0.1-1,0.3-1.3,0.5c-0.2,0.2-0.4,0.6-0.4,1c0,0.5,0.2,0.9,0.5,1.2c0.4,0.3,0.8,0.5,1.4,0.5
			C772.2,115.6,772.9,115.3,773.3,114.8z"/>
		<path class="st1" d="M794.1,110.7v5.4c0,0.3-0.1,0.6-0.3,0.7c-0.2,0.2-0.5,0.3-0.8,0.3c-0.3,0-0.6-0.1-0.8-0.3
			c-0.2-0.2-0.3-0.4-0.3-0.7v-5.4c0-0.8-0.2-1.5-0.5-1.8s-0.8-0.6-1.4-0.6c-0.8,0-1.4,0.3-1.8,0.8c-0.4,0.5-0.7,1.2-0.7,2.1v4.9
			c0,0.3-0.1,0.6-0.3,0.7c-0.2,0.2-0.5,0.3-0.8,0.3c-0.3,0-0.6-0.1-0.8-0.3c-0.2-0.2-0.3-0.4-0.3-0.7v-5.4c0-0.8-0.2-1.5-0.5-1.8
			c-0.3-0.4-0.8-0.6-1.4-0.6c-0.8,0-1.4,0.3-1.8,0.8c-0.5,0.5-0.7,1.2-0.7,2.1v4.9c0,0.3-0.1,0.6-0.3,0.7c-0.2,0.2-0.4,0.3-0.8,0.3
			s-0.6-0.1-0.8-0.3c-0.2-0.2-0.3-0.4-0.3-0.7v-8.5c0-0.3,0.1-0.5,0.3-0.7s0.5-0.3,0.8-0.3s0.5,0.1,0.7,0.3c0.2,0.2,0.3,0.4,0.3,0.7
			v0.8c0.3-0.6,0.7-1,1.3-1.3c0.5-0.3,1.2-0.5,1.9-0.5c0.8,0,1.4,0.2,1.9,0.5s0.9,0.8,1.1,1.5c0.3-0.6,0.8-1.1,1.4-1.4
			c0.6-0.4,1.3-0.5,2-0.5C793,106.6,794.1,107.9,794.1,110.7z"/>
		<path class="st1" d="M805.4,114.7c0.1,0.2,0.2,0.3,0.2,0.6c0,0.4-0.3,0.7-0.8,1c-0.5,0.3-1,0.5-1.6,0.6c-0.6,0.2-1.1,0.2-1.7,0.2
			c-1.6,0-2.9-0.5-3.8-1.4c-0.9-0.9-1.4-2.2-1.4-3.8c0-1,0.2-2,0.6-2.8c0.4-0.8,1-1.4,1.7-1.9s1.6-0.7,2.5-0.7
			c1.4,0,2.4,0.4,3.2,1.3c0.8,0.9,1.2,2.1,1.2,3.5c0,0.6-0.2,0.8-0.8,0.8h-6.4c0.1,2.2,1.2,3.2,3.1,3.2c0.5,0,1-0.1,1.3-0.2
			c0.4-0.1,0.8-0.3,1.2-0.5c0,0,0.2-0.1,0.3-0.2c0.2-0.1,0.3-0.1,0.5-0.1C805.1,114.4,805.3,114.5,805.4,114.7z M799.4,108.9
			c-0.5,0.5-0.8,1.2-0.9,2.2h5.4c0-0.9-0.3-1.7-0.7-2.2c-0.4-0.5-1.1-0.8-1.8-0.8C800.5,108.1,799.9,108.4,799.4,108.9z"/>
	</g>
	<circle class="st0" cx="107.1" cy="145.2" r="51.1"/>
	<g>
		<rect x="57.1" y="138.6" class="st2" width="100" height="13.3"/>
		<path class="st1" d="M68.6,151.2c-0.2-0.2-0.3-0.4-0.3-0.7v-10.9c0-0.3,0.1-0.5,0.2-0.7s0.4-0.2,0.7-0.2h4.3c1.3,0,2.4,0.3,3.1,1
			c0.7,0.7,1.1,1.6,1.1,2.8c0,1.2-0.4,2.1-1.1,2.8c-0.7,0.7-1.8,1-3.1,1h-3.4v4.2c0,0.3-0.1,0.5-0.2,0.7s-0.4,0.3-0.7,0.3
			C69,151.4,68.7,151.3,68.6,151.2z M76,142.5c0-1.5-0.9-2.3-2.7-2.3h-3.2v4.6h3.2C75.1,144.8,76,144,76,142.5z"/>
		<path class="st1" d="M85.1,143.1c0,0.3-0.1,0.5-0.2,0.6c-0.1,0.1-0.4,0.2-0.7,0.2l-0.5,0.1c-0.8,0.1-1.3,0.3-1.7,0.8
			s-0.5,1-0.5,1.7v4.1c0,0.3-0.1,0.5-0.3,0.6s-0.4,0.2-0.6,0.2s-0.5-0.1-0.7-0.2c-0.2-0.1-0.3-0.4-0.3-0.6v-7.3
			c0-0.3,0.1-0.5,0.3-0.6c0.2-0.1,0.4-0.2,0.7-0.2c0.2,0,0.4,0.1,0.6,0.2c0.2,0.2,0.2,0.4,0.2,0.6v0.9c0.2-0.5,0.6-0.9,1-1.2
			c0.5-0.3,1-0.4,1.5-0.5l0.3,0C84.8,142.3,85.1,142.6,85.1,143.1z"/>
		<path class="st1" d="M87.6,150.9c-0.7-0.4-1.2-0.9-1.5-1.6c-0.4-0.7-0.5-1.5-0.5-2.4c0-0.9,0.2-1.7,0.5-2.4
			c0.4-0.7,0.9-1.2,1.5-1.6c0.7-0.4,1.4-0.6,2.3-0.6s1.6,0.2,2.3,0.6c0.7,0.4,1.2,0.9,1.5,1.6c0.4,0.7,0.5,1.5,0.5,2.4
			c0,0.9-0.2,1.7-0.5,2.4c-0.4,0.7-0.9,1.2-1.5,1.6c-0.7,0.4-1.4,0.6-2.3,0.6S88.3,151.3,87.6,150.9z M91.7,149.2
			c0.4-0.5,0.6-1.3,0.6-2.3c0-1-0.2-1.8-0.6-2.3c-0.4-0.5-1-0.8-1.8-0.8s-1.4,0.3-1.8,0.8c-0.4,0.5-0.6,1.3-0.6,2.3
			c0,1,0.2,1.8,0.6,2.3c0.4,0.5,1,0.8,1.8,0.8C90.7,150,91.3,149.8,91.7,149.2z"/>
		<path class="st1" d="M101,150.3c0.1,0.1,0.2,0.3,0.2,0.5c0,0.2-0.1,0.4-0.3,0.5c-0.2,0.1-0.5,0.2-0.8,0.2l-0.5,0
			c-1-0.1-1.7-0.4-2.2-0.9c-0.5-0.5-0.7-1.3-0.7-2.3V144h-1.1c-0.5,0-0.8-0.2-0.8-0.7c0-0.2,0.1-0.4,0.2-0.5
			c0.1-0.1,0.3-0.2,0.6-0.2h1.1v-1.9c0-0.3,0.1-0.5,0.2-0.6c0.2-0.2,0.4-0.2,0.7-0.2s0.5,0.1,0.7,0.2c0.2,0.2,0.3,0.4,0.3,0.6v1.9
			h1.8c0.3,0,0.4,0.1,0.6,0.2s0.2,0.3,0.2,0.5c0,0.2-0.1,0.4-0.2,0.5s-0.3,0.2-0.6,0.2h-1.8v4.4c0,0.6,0.1,1,0.4,1.2
			c0.2,0.3,0.6,0.4,1.1,0.5l0.5,0C100.7,150.1,100.9,150.1,101,150.3z"/>
		<path class="st1" d="M104.1,150.9c-0.7-0.4-1.2-0.9-1.5-1.6c-0.4-0.7-0.5-1.5-0.5-2.4c0-0.9,0.2-1.7,0.5-2.4
			c0.4-0.7,0.9-1.2,1.5-1.6c0.7-0.4,1.4-0.6,2.3-0.6s1.6,0.2,2.3,0.6c0.7,0.4,1.2,0.9,1.5,1.6c0.4,0.7,0.5,1.5,0.5,2.4
			c0,0.9-0.2,1.7-0.5,2.4c-0.4,0.7-0.9,1.2-1.5,1.6c-0.7,0.4-1.4,0.6-2.3,0.6S104.7,151.3,104.1,150.9z M108.2,149.2
			c0.4-0.5,0.6-1.3,0.6-2.3c0-1-0.2-1.8-0.6-2.3c-0.4-0.5-1-0.8-1.8-0.8s-1.4,0.3-1.8,0.8c-0.4,0.5-0.6,1.3-0.6,2.3
			c0,1,0.2,1.8,0.6,2.3c0.4,0.5,1,0.8,1.8,0.8C107.1,150,107.8,149.8,108.2,149.2z"/>
		<path class="st1" d="M117.5,150.3c0.1,0.1,0.2,0.3,0.2,0.5c0,0.2-0.1,0.4-0.3,0.5c-0.2,0.1-0.5,0.2-0.8,0.2l-0.5,0
			c-1-0.1-1.7-0.4-2.2-0.9c-0.5-0.5-0.7-1.3-0.7-2.3V144h-1.1c-0.5,0-0.8-0.2-0.8-0.7c0-0.2,0.1-0.4,0.2-0.5
			c0.1-0.1,0.3-0.2,0.6-0.2h1.1v-1.9c0-0.3,0.1-0.5,0.2-0.6c0.2-0.2,0.4-0.2,0.7-0.2s0.5,0.1,0.7,0.2c0.2,0.2,0.3,0.4,0.3,0.6v1.9
			h1.8c0.3,0,0.4,0.1,0.6,0.2s0.2,0.3,0.2,0.5c0,0.2-0.1,0.4-0.2,0.5s-0.3,0.2-0.6,0.2H115v4.4c0,0.6,0.1,1,0.4,1.2
			c0.2,0.3,0.6,0.4,1.1,0.5l0.5,0C117.2,150.1,117.4,150.1,117.5,150.3z"/>
		<path class="st1" d="M125.7,142.5c0.1-0.1,0.3-0.1,0.4-0.1c0.2,0,0.4,0.1,0.6,0.2c0.2,0.2,0.3,0.3,0.3,0.6c0,0.1,0,0.2-0.1,0.3
			l-5,10.6c-0.1,0.2-0.2,0.3-0.3,0.4c-0.1,0.1-0.3,0.1-0.4,0.1c-0.2,0-0.4-0.1-0.6-0.2c-0.2-0.1-0.3-0.3-0.3-0.5
			c0-0.1,0-0.2,0.1-0.4l1.2-2.6l-3.5-7.4c0-0.1-0.1-0.2-0.1-0.3c0-0.2,0.1-0.4,0.3-0.6c0.2-0.2,0.4-0.2,0.6-0.2
			c0.4,0,0.6,0.2,0.8,0.5l2.8,6.2l2.8-6.2C125.4,142.7,125.5,142.6,125.7,142.5z"/>
		<path class="st1" d="M135.2,142.9c0.6,0.4,1.1,0.9,1.4,1.6s0.5,1.5,0.5,2.4c0,0.9-0.2,1.7-0.5,2.4c-0.3,0.7-0.8,1.2-1.4,1.6
			c-0.6,0.4-1.3,0.6-2,0.6c-0.7,0-1.2-0.1-1.7-0.4c-0.5-0.3-0.9-0.7-1.2-1.2v4c0,0.3-0.1,0.5-0.2,0.6c-0.2,0.1-0.4,0.2-0.6,0.2
			c-0.3,0-0.5-0.1-0.7-0.2c-0.2-0.2-0.3-0.4-0.3-0.6v-10.5c0-0.3,0.1-0.5,0.3-0.6s0.4-0.2,0.7-0.2c0.3,0,0.5,0.1,0.6,0.2
			s0.3,0.4,0.3,0.6v0.7c0.3-0.5,0.6-0.9,1.2-1.2c0.5-0.3,1.1-0.4,1.7-0.4C134,142.3,134.6,142.5,135.2,142.9z M134.6,149.2
			c0.4-0.5,0.6-1.3,0.6-2.3c0-1-0.2-1.8-0.7-2.3c-0.4-0.6-1-0.8-1.8-0.8c-0.8,0-1.4,0.3-1.8,0.8s-0.6,1.3-0.6,2.3s0.2,1.8,0.6,2.3
			s1,0.8,1.8,0.8S134.2,149.8,134.6,149.2z"/>
		<path class="st1" d="M146.4,149.3c0.1,0.1,0.2,0.3,0.2,0.5c0,0.3-0.2,0.6-0.6,0.9c-0.4,0.2-0.9,0.4-1.4,0.6s-1,0.2-1.4,0.2
			c-1.4,0-2.5-0.4-3.3-1.2c-0.8-0.8-1.2-1.9-1.2-3.3c0-0.9,0.2-1.7,0.5-2.4c0.4-0.7,0.9-1.2,1.5-1.6c0.6-0.4,1.4-0.6,2.2-0.6
			c1.2,0,2.1,0.4,2.8,1.1c0.7,0.8,1,1.8,1,3.1c0,0.5-0.2,0.7-0.6,0.7h-5.6c0.1,1.9,1,2.8,2.7,2.8c0.4,0,0.8-0.1,1.2-0.2
			s0.7-0.3,1-0.5c0,0,0.1-0.1,0.3-0.2c0.2-0.1,0.3-0.1,0.4-0.1C146.2,149.1,146.3,149.2,146.4,149.3z M141.2,144.3
			c-0.4,0.4-0.7,1.1-0.8,1.9h4.6c0-0.8-0.2-1.4-0.6-1.9c-0.4-0.4-0.9-0.7-1.6-0.7C142.2,143.7,141.6,143.9,141.2,144.3z"/>
	</g>
	<circle class="st0" cx="521.5" cy="58.5" r="43.3"/>
	<g>
		<rect x="482.1" y="52.7" class="st2" width="78.9" height="11.5"/>
		<path class="st1" d="M484.4,62c-0.6-0.2-1.1-0.4-1.5-0.8c-0.2-0.1-0.3-0.3-0.3-0.5c0-0.2,0-0.3,0.1-0.4c0.1-0.1,0.2-0.2,0.3-0.2
			c0.1,0,0.3,0.1,0.5,0.2c0.8,0.6,1.7,0.9,2.7,0.9c0.7,0,1.3-0.1,1.6-0.4c0.4-0.3,0.6-0.7,0.6-1.2c0-0.4-0.2-0.7-0.5-0.9
			c-0.4-0.2-0.9-0.4-1.7-0.6c-0.8-0.2-1.4-0.3-1.9-0.5c-0.5-0.2-0.9-0.5-1.1-0.8c-0.3-0.4-0.4-0.8-0.4-1.3c0-0.5,0.1-1,0.4-1.5
			c0.3-0.4,0.7-0.8,1.3-1c0.5-0.2,1.1-0.4,1.8-0.4c0.6,0,1.2,0.1,1.8,0.3c0.5,0.2,1,0.4,1.4,0.8c0.2,0.2,0.3,0.3,0.3,0.5
			c0,0.2,0,0.3-0.1,0.4s-0.2,0.2-0.3,0.2c-0.1,0-0.3-0.1-0.4-0.2c-0.4-0.3-0.8-0.5-1.2-0.7s-0.8-0.2-1.3-0.2c-0.7,0-1.2,0.1-1.6,0.4
			s-0.6,0.7-0.6,1.2c0,0.4,0.2,0.8,0.5,1c0.3,0.2,0.9,0.4,1.6,0.6c0.8,0.2,1.4,0.4,1.9,0.6c0.5,0.2,0.9,0.5,1.2,0.8
			c0.3,0.3,0.4,0.8,0.4,1.3c0,0.5-0.1,1-0.4,1.4s-0.7,0.7-1.3,1c-0.5,0.2-1.2,0.3-1.9,0.3C485.6,62.3,485,62.2,484.4,62z"/>
		<path class="st1" d="M497,55.7c0.1,0.1,0.2,0.3,0.2,0.5v5.5c0,0.2-0.1,0.3-0.2,0.5s-0.3,0.2-0.5,0.2c-0.2,0-0.3-0.1-0.5-0.2
			s-0.2-0.3-0.2-0.4v-0.5c-0.2,0.4-0.5,0.7-0.9,0.9c-0.4,0.2-0.8,0.3-1.2,0.3c-1.6,0-2.4-0.9-2.4-2.6v-3.5c0-0.2,0.1-0.4,0.2-0.5
			c0.1-0.1,0.3-0.2,0.5-0.2c0.2,0,0.4,0.1,0.5,0.2c0.1,0.1,0.2,0.3,0.2,0.5v3.5c0,0.5,0.1,0.9,0.3,1.2c0.2,0.3,0.5,0.4,1,0.4
			c0.5,0,1-0.2,1.3-0.5s0.5-0.8,0.5-1.4v-3.2c0-0.2,0.1-0.4,0.2-0.5c0.1-0.1,0.3-0.2,0.5-0.2C496.7,55.5,496.9,55.6,497,55.7z"/>
		<path class="st1" d="M499.1,54c-0.2-0.1-0.2-0.3-0.2-0.6s0.1-0.4,0.2-0.6s0.4-0.2,0.6-0.2c0.2,0,0.5,0.1,0.6,0.2
			c0.2,0.1,0.2,0.3,0.2,0.6s-0.1,0.4-0.2,0.6c-0.2,0.1-0.4,0.2-0.6,0.2C499.5,54.2,499.3,54.1,499.1,54z M499.2,62.1
			c-0.1-0.1-0.2-0.3-0.2-0.5v-5.4c0-0.2,0.1-0.4,0.2-0.5c0.1-0.1,0.3-0.2,0.5-0.2c0.2,0,0.4,0.1,0.5,0.2c0.1,0.1,0.2,0.3,0.2,0.5
			v5.4c0,0.2-0.1,0.4-0.2,0.5s-0.3,0.2-0.5,0.2C499.5,62.3,499.4,62.2,499.2,62.1z"/>
		<path class="st1" d="M506.1,61.4c0.1,0.1,0.1,0.2,0.1,0.4c0,0.2-0.1,0.3-0.2,0.4s-0.3,0.1-0.6,0.1l-0.4,0
			c-0.7-0.1-1.3-0.3-1.6-0.7c-0.4-0.4-0.5-1-0.5-1.7v-3.2h-0.8c-0.4,0-0.6-0.2-0.6-0.5c0-0.2,0.1-0.3,0.2-0.4
			c0.1-0.1,0.2-0.1,0.4-0.1h0.8v-1.4c0-0.2,0.1-0.4,0.2-0.5c0.1-0.1,0.3-0.2,0.5-0.2c0.2,0,0.4,0.1,0.5,0.2s0.2,0.3,0.2,0.5v1.4h1.3
			c0.2,0,0.3,0,0.4,0.1s0.2,0.2,0.2,0.4c0,0.2-0.1,0.3-0.2,0.4c-0.1,0.1-0.2,0.1-0.4,0.1h-1.3V60c0,0.4,0.1,0.7,0.3,0.9
			c0.2,0.2,0.4,0.3,0.8,0.3l0.4,0C505.9,61.3,506,61.3,506.1,61.4z"/>
		<path class="st1" d="M512.7,60.7c0.1,0.1,0.1,0.2,0.1,0.4c0,0.3-0.2,0.5-0.5,0.7c-0.3,0.2-0.7,0.3-1,0.4s-0.7,0.1-1.1,0.1
			c-1,0-1.9-0.3-2.5-0.9c-0.6-0.6-0.9-1.4-0.9-2.5c0-0.7,0.1-1.3,0.4-1.8s0.6-0.9,1.1-1.2c0.5-0.3,1-0.4,1.6-0.4
			c0.9,0,1.6,0.3,2.1,0.8s0.8,1.3,0.8,2.3c0,0.4-0.2,0.5-0.5,0.5h-4.1c0.1,1.4,0.8,2.1,2,2.1c0.3,0,0.6,0,0.9-0.1
			c0.2-0.1,0.5-0.2,0.8-0.3c0,0,0.1-0.1,0.2-0.1c0.1-0.1,0.2-0.1,0.3-0.1C512.5,60.6,512.6,60.6,512.7,60.7z M508.8,57
			c-0.3,0.3-0.5,0.8-0.6,1.4h3.5c0-0.6-0.2-1.1-0.5-1.4c-0.3-0.3-0.7-0.5-1.2-0.5C509.5,56.5,509.1,56.7,508.8,57z"/>
		<path class="st1" d="M526.4,61.7c0,0.2-0.1,0.3-0.2,0.4c-0.1,0.1-0.3,0.2-0.5,0.2c-0.1,0-0.2,0-0.3-0.1c-0.1-0.1-0.2-0.2-0.2-0.3
			l-0.9-2h-4.9l-0.9,2c-0.1,0.1-0.1,0.2-0.2,0.3c-0.1,0.1-0.2,0.1-0.3,0.1c-0.2,0-0.3-0.1-0.5-0.2s-0.2-0.3-0.2-0.4
			c0-0.1,0-0.2,0.1-0.3l3.8-8.3c0.1-0.1,0.2-0.3,0.3-0.3c0.1-0.1,0.3-0.1,0.4-0.1c0.2,0,0.3,0,0.4,0.1c0.1,0.1,0.2,0.2,0.3,0.3
			l3.8,8.3C526.4,61.5,526.4,61.6,526.4,61.7z M519.9,58.8h3.9l-2-4.4L519.9,58.8z"/>
		<path class="st1" d="M533.5,52.9c0.1,0.1,0.2,0.3,0.2,0.5v8.3c0,0.2-0.1,0.4-0.2,0.5c-0.1,0.1-0.3,0.2-0.5,0.2s-0.4-0.1-0.5-0.2
			c-0.1-0.1-0.2-0.3-0.2-0.5v-0.5c-0.2,0.4-0.5,0.7-0.9,0.9c-0.4,0.2-0.8,0.3-1.3,0.3c-0.6,0-1.1-0.1-1.5-0.4s-0.8-0.7-1-1.2
			c-0.2-0.5-0.4-1.1-0.4-1.8c0-0.7,0.1-1.3,0.4-1.8c0.2-0.5,0.6-0.9,1-1.2s0.9-0.4,1.5-0.4c0.5,0,0.9,0.1,1.3,0.3s0.7,0.5,0.9,0.9
			v-3.4c0-0.2,0.1-0.3,0.2-0.4c0.1-0.1,0.3-0.2,0.5-0.2C533.3,52.7,533.4,52.7,533.5,52.9z M531.9,60.6c0.3-0.4,0.5-1,0.5-1.7
			c0-0.7-0.2-1.3-0.5-1.7c-0.3-0.4-0.8-0.6-1.4-0.6c-0.6,0-1,0.2-1.4,0.6c-0.3,0.4-0.5,1-0.5,1.7s0.2,1.3,0.5,1.7
			c0.3,0.4,0.8,0.6,1.4,0.6C531.1,61.2,531.6,61,531.9,60.6z"/>
		<path class="st1" d="M536.8,61.9c-0.5-0.3-0.9-0.7-1.1-1.2c-0.3-0.5-0.4-1.1-0.4-1.8c0-0.7,0.1-1.3,0.4-1.8
			c0.3-0.5,0.6-0.9,1.1-1.2c0.5-0.3,1.1-0.4,1.7-0.4s1.2,0.1,1.7,0.4s0.9,0.7,1.1,1.2c0.3,0.5,0.4,1.1,0.4,1.8
			c0,0.7-0.1,1.3-0.4,1.8c-0.3,0.5-0.6,0.9-1.1,1.2c-0.5,0.3-1.1,0.4-1.7,0.4S537.3,62.2,536.8,61.9z M539.8,60.6
			c0.3-0.4,0.5-1,0.5-1.7c0-0.8-0.2-1.3-0.5-1.7c-0.3-0.4-0.8-0.6-1.4-0.6s-1,0.2-1.4,0.6c-0.3,0.4-0.5,1-0.5,1.7
			c0,0.8,0.2,1.3,0.5,1.7s0.8,0.6,1.4,0.6C539.1,61.2,539.5,61,539.8,60.6z"/>
		<path class="st1" d="M548.2,55.9c0.4,0.3,0.8,0.7,1,1.2s0.4,1.1,0.4,1.8c0,0.7-0.1,1.3-0.4,1.8s-0.6,0.9-1,1.2s-0.9,0.4-1.5,0.4
			c-0.5,0-0.9-0.1-1.3-0.3c-0.4-0.2-0.7-0.5-0.9-0.9v0.5c0,0.2-0.1,0.4-0.2,0.5c-0.1,0.1-0.3,0.2-0.5,0.2c-0.2,0-0.4-0.1-0.5-0.2
			c-0.1-0.1-0.2-0.3-0.2-0.5v-8.3c0-0.2,0.1-0.4,0.2-0.5c0.1-0.1,0.3-0.2,0.5-0.2c0.2,0,0.4,0.1,0.5,0.2c0.1,0.1,0.2,0.3,0.2,0.4
			v3.4c0.2-0.4,0.5-0.7,0.9-0.9c0.4-0.2,0.8-0.3,1.3-0.3C547.3,55.5,547.8,55.6,548.2,55.9z M547.7,60.6c0.3-0.4,0.5-1,0.5-1.7
			c0-0.7-0.2-1.3-0.5-1.7c-0.3-0.4-0.8-0.6-1.4-0.6s-1,0.2-1.4,0.6c-0.3,0.4-0.5,1-0.5,1.7c0,0.7,0.2,1.3,0.5,1.7s0.8,0.6,1.4,0.6
			C547,61.2,547.4,61,547.7,60.6z"/>
		<path class="st1" d="M556.5,60.7c0.1,0.1,0.1,0.2,0.1,0.4c0,0.3-0.2,0.5-0.5,0.7c-0.3,0.2-0.7,0.3-1,0.4s-0.7,0.1-1.1,0.1
			c-1,0-1.9-0.3-2.5-0.9c-0.6-0.6-0.9-1.4-0.9-2.5c0-0.7,0.1-1.3,0.4-1.8s0.6-0.9,1.1-1.2c0.5-0.3,1-0.4,1.6-0.4
			c0.9,0,1.6,0.3,2.1,0.8s0.8,1.3,0.8,2.3c0,0.4-0.2,0.5-0.5,0.5h-4.1c0.1,1.4,0.8,2.1,2,2.1c0.3,0,0.6,0,0.9-0.1
			c0.2-0.1,0.5-0.2,0.8-0.3c0,0,0.1-0.1,0.2-0.1c0.1-0.1,0.2-0.1,0.3-0.1C556.4,60.6,556.5,60.6,556.5,60.7z M552.7,57
			c-0.3,0.3-0.5,0.8-0.6,1.4h3.5c0-0.6-0.2-1.1-0.5-1.4c-0.3-0.3-0.7-0.5-1.2-0.5C553.4,56.5,553,56.7,552.7,57z"/>
	</g>
</g>
<g>
</g>
<g>
</g>
<g>
</g>
<g>
</g>
<g>
</g>
<g>
</g>
</svg>
